<svg xmlns="http://www.w3.org/2000/svg" viewBox="0 0 1069.61 309.83"><defs><style>.cls-1{fill:#8599ff;}.cls-2{fill:#ff5e5e;}.cls-3{opacity:0.21;}.cls-10,.cls-19,.cls-21,.cls-4{fill:#fff;}.cls-5{fill:#ffc400;}.cls-6{opacity:0.74;}.cls-10,.cls-7{opacity:0.35;}.cls-8{fill:#374ba8;}.cls-9{fill:#000d24;}.cls-11{fill:#fe7624;}.cls-12{fill:#65c8d0;}.cls-13{opacity:0.25;}.cls-14{fill:#ff9f94;}.cls-15{fill:#ffe852;}.cls-16{fill:#ff6d5c;}.cls-17{fill:#3f7cd1;}.cls-18,.cls-20{fill:#78ceff;}.cls-18{opacity:0.28;}.cls-19{opacity:0.22;}.cls-20{opacity:0.51;}.cls-21{opacity:0.39;}</style></defs><g id="Calque_2" data-name="Calque 2"><g id="Layer_1" data-name="Layer 1"><path class="cls-1" d="M897.05,213.78l-3,.81-3-11.07c-2.34-8.66-12.06-13.6-21.68-11S853.85,204.28,856.19,213l3,11.07-3,.81a4.14,4.14,0,0,0-3.17,4.91l7.8,28.86a4.14,4.14,0,0,0,5.22,2.64l40.87-11.05a4.14,4.14,0,0,0,3.17-4.91l-7.8-28.86A4.14,4.14,0,0,0,897.05,213.78ZM863.34,211c-1.38-5.11,2.11-10.51,7.78-12s11.4,1.38,12.78,6.48l3,11.07-20.56,5.56Zm21.25,27,1.5,5.53a2.82,2.82,0,0,1-5.42,1.47l-1.5-5.54a5.59,5.59,0,0,1-4.95-5.09,6,6,0,0,1,3.52-5.65c3.78-1.83,8-.06,9,3.39A5.71,5.71,0,0,1,884.59,238Z"/><path class="cls-1" d="M194.49,95l-2.35.64L189.8,87c-1.84-6.79-9.45-10.65-17-8.61s-12.16,9.21-10.32,16l2.34,8.66-2.35.63A3.25,3.25,0,0,0,160,107.5l6.1,22.59a3.26,3.26,0,0,0,4.09,2.07l32-8.65a3.25,3.25,0,0,0,2.48-3.85l-6.11-22.58A3.24,3.24,0,0,0,194.49,95Zm-26.38-2.16c-1.09-4,1.64-8.23,6.08-9.43s8.93,1.08,10,5.08l2.34,8.66-16.09,4.36ZM184.73,114l1.18,4.34a2.21,2.21,0,0,1-4.24,1.15l-1.17-4.34a4.37,4.37,0,0,1-3.88-4,4.73,4.73,0,0,1,2.76-4.43c3-1.43,6.27,0,7,2.66A4.45,4.45,0,0,1,184.73,114Z"/><path class="cls-1" d="M82,180.74c-.7-.1-1.41-.19-2.11-.25l-1.28-7.67a48.33,48.33,0,0,0-6.26.08l-1.09,7.69a41.84,41.84,0,0,0-4.2.72l-3.59-6.9a47.93,47.93,0,0,0-5.92,2l1.34,7.67a40.88,40.88,0,0,0-3.77,2l-5.54-5.44a49.53,49.53,0,0,0-5,3.74l3.64,6.87a40.6,40.6,0,0,0-3,3l-7-3.47a47.39,47.39,0,0,0-3.62,5.1l5.59,5.41a42.36,42.36,0,0,0-1.89,3.82L30.69,204a47.19,47.19,0,0,0-1.86,6l7,3.41q-.21,1-.36,2.1c-.11.71-.19,1.41-.26,2.11l-7.66,1.28a50.19,50.19,0,0,0,.07,6.26l7.7,1.1a42.14,42.14,0,0,0,.72,4.19L29.12,234a48.08,48.08,0,0,0,2,5.93l7.66-1.34c.6,1.29,1.26,2.54,2,3.76l-5.45,5.54a48.17,48.17,0,0,0,3.75,5l6.86-3.64a40.74,40.74,0,0,0,3,3l-3.48,7a50,50,0,0,0,5.11,3.62l5.41-5.6a36.64,36.64,0,0,0,3.82,1.89l-1.15,7.69a47.16,47.16,0,0,0,6,1.85l3.41-7q1,.19,2.1.36c.7.1,1.41.18,2.11.25L73.57,270a50.19,50.19,0,0,0,6.26-.07l1.09-7.7a39.18,39.18,0,0,0,4.2-.72l3.59,6.91a48.7,48.7,0,0,0,5.93-2l-1.35-7.66c1.29-.6,2.55-1.26,3.77-2l5.54,5.45a48.17,48.17,0,0,0,5-3.75L104,251.56c1-1,2-2,3-3l7,3.47a48.53,48.53,0,0,0,3.62-5.11l-5.59-5.41a42.17,42.17,0,0,0,1.89-3.81l7.69,1.15a49.94,49.94,0,0,0,1.85-6l-7-3.42q.21-1,.36-2.1c.11-.7.19-1.41.26-2.11l7.66-1.28a50.19,50.19,0,0,0-.07-6.26l-7.7-1.09a41.84,41.84,0,0,0-.72-4.2l6.9-3.59a46.86,46.86,0,0,0-2-5.92l-7.66,1.34c-.6-1.29-1.26-2.55-2-3.77l5.45-5.54a48.17,48.17,0,0,0-3.75-5l-6.86,3.64a40.74,40.74,0,0,0-3-3l3.48-7a48.53,48.53,0,0,0-5.11-3.62l-5.41,5.59a41.09,41.09,0,0,0-3.82-1.89L93.51,176a47.55,47.55,0,0,0-6-1.86l-3.42,7Q83.09,180.89,82,180.74Zm26.37,45.36a32.63,32.63,0,1,1-27.59-37A32.63,32.63,0,0,1,108.39,226.1Z"/><path class="cls-1" d="M976,179.63c-.71-.1-1.41-.19-2.11-.25l-1.29-7.67a48.2,48.2,0,0,0-6.25.08l-1.1,7.69a42.14,42.14,0,0,0-4.19.72l-3.59-6.9a48.08,48.08,0,0,0-5.93,2l1.34,7.67a38.49,38.49,0,0,0-3.76,2l-5.54-5.45a49.53,49.53,0,0,0-5,3.74l3.64,6.87c-1,1-2,2-3,3l-7-3.47a48.4,48.4,0,0,0-3.62,5.1l5.59,5.42A39.62,39.62,0,0,0,932.3,204l-7.69-1.15a48.87,48.87,0,0,0-1.86,6l7,3.41q-.19,1.05-.36,2.1c-.1.71-.18,1.41-.25,2.11l-7.66,1.29a48.36,48.36,0,0,0,.07,6.26l7.7,1.09a39,39,0,0,0,.72,4.19L923,232.89a48.12,48.12,0,0,0,2,5.93l7.66-1.34c.6,1.29,1.26,2.54,2,3.76l-5.45,5.54a48.44,48.44,0,0,0,3.74,5l6.87-3.64a40.55,40.55,0,0,0,3,3l-3.47,7a49.46,49.46,0,0,0,5.1,3.62l5.42-5.59a39.62,39.62,0,0,0,3.81,1.88l-1.15,7.69a49.42,49.42,0,0,0,6,1.86l3.42-7c.69.13,1.39.26,2.09.36s1.42.18,2.12.25l1.28,7.66a46.62,46.62,0,0,0,6.26-.07l1.09-7.69a41.84,41.84,0,0,0,4.2-.72l3.59,6.9a50.27,50.27,0,0,0,5.92-2l-1.34-7.67a39.55,39.55,0,0,0,3.76-2l5.55,5.45a49.53,49.53,0,0,0,5-3.74l-3.64-6.87c1-1,2-2,3-3l7,3.47a48.4,48.4,0,0,0,3.62-5.1l-5.59-5.42a42.17,42.17,0,0,0,1.89-3.81l7.68,1.15a49.42,49.42,0,0,0,1.86-6l-7-3.42c.14-.69.26-1.39.36-2.09s.19-1.41.25-2.12l7.67-1.28a48.33,48.33,0,0,0-.08-6.26l-7.69-1.09a41.17,41.17,0,0,0-.72-4.19l6.9-3.6a48.51,48.51,0,0,0-2-5.92l-7.67,1.34a39.47,39.47,0,0,0-2-3.76l5.44-5.55a50.68,50.68,0,0,0-3.74-5l-6.87,3.64a38.61,38.61,0,0,0-3-3l3.47-7a48.4,48.4,0,0,0-5.1-3.62l-5.41,5.59a41,41,0,0,0-3.82-1.88l1.15-7.69a48.87,48.87,0,0,0-6-1.86l-3.41,7Q977,179.78,976,179.63ZM1002.32,225a32.63,32.63,0,1,1-27.59-37A32.63,32.63,0,0,1,1002.32,225Z"/><path class="cls-1" d="M107.61,112.38c-.8-.15-1.6-.27-2.43-.36s-1.63-.14-2.44-.16l-2.37,6.44a27.61,27.61,0,0,0-6.12,1L90,113.84a34.49,34.49,0,0,0-4.48,2l1.18,6.78a27.68,27.68,0,0,0-4.81,3.89l-6.38-2.58a33.05,33.05,0,0,0-2.89,4l4.41,5.29a27.58,27.58,0,0,0-2.23,5.78l-6.8.95c-.14.8-.27,1.6-.36,2.42s-.13,1.64-.16,2.45L74,147.13a27.61,27.61,0,0,0,1,6.12l-5.43,4.23a35.26,35.26,0,0,0,2,4.48l6.79-1.18a27.62,27.62,0,0,0,3.88,4.81L79.56,172a34,34,0,0,0,4,2.89l5.28-4.41a27.79,27.79,0,0,0,5.78,2.23l1,6.8c.8.14,1.61.27,2.43.36s1.64.13,2.45.16l2.36-6.45a27.61,27.61,0,0,0,6.12-1l4.24,5.43a35.13,35.13,0,0,0,4.47-2l-1.18-6.79a27.69,27.69,0,0,0,4.82-3.88l6.38,2.58a35.19,35.19,0,0,0,2.89-4l-4.41-5.28a27.79,27.79,0,0,0,2.23-5.78l6.79-.95q.23-1.2.36-2.43c.09-.82.14-1.64.16-2.45l-6.44-2.36a27.61,27.61,0,0,0-1-6.12l5.42-4.24a33.78,33.78,0,0,0-2-4.47l-6.78,1.18a27.75,27.75,0,0,0-3.89-4.82l2.58-6.38a34.19,34.19,0,0,0-4-2.89l-5.29,4.41a27.58,27.58,0,0,0-5.78-2.23Zm16.18,35.91a22.34,22.34,0,1,1-19.85-24.58A22.35,22.35,0,0,1,123.79,148.29Z"/><path class="cls-1" d="M541.48,66c-.59.05-1.16.11-1.74.2l-2.47-5.87a41.18,41.18,0,0,0-5,1.24l.59,6.35a32.58,32.58,0,0,0-3.21,1.37l-4.17-4.83a39.72,39.72,0,0,0-4.35,2.73L523.68,73a32,32,0,0,0-2.63,2.29L515.6,72A40.25,40.25,0,0,0,512.3,76l4.21,4.78a31.08,31.08,0,0,0-1.79,3l-6.21-1.45A38.49,38.49,0,0,0,506.59,87l5.48,3.26a31.68,31.68,0,0,0-.78,3.4l-6.35.54a39.31,39.31,0,0,0-.34,5.12l6.21,1.4c0,.57.06,1.15.11,1.74s.12,1.16.2,1.73l-5.87,2.48a38.84,38.84,0,0,0,1.25,5l6.34-.59a32.58,32.58,0,0,0,1.37,3.21l-4.82,4.18a39.51,39.51,0,0,0,2.72,4.34l5.86-2.52c.72.91,1.49,1.79,2.29,2.62L517,128.37a39.92,39.92,0,0,0,3.94,3.29l4.78-4.2c1,.64,2,1.24,3,1.79l-1.45,6.21a40.11,40.11,0,0,0,4.76,1.92l3.26-5.49a32.24,32.24,0,0,0,3.4.78l.54,6.35a41.27,41.27,0,0,0,5.12.35l1.4-6.21c.58,0,1.16-.06,1.74-.11s1.16-.12,1.73-.2l2.48,5.86a41.18,41.18,0,0,0,5-1.24l-.59-6.35c1.1-.4,2.17-.86,3.21-1.36l4.17,4.82a39.59,39.59,0,0,0,4.34-2.73L565.25,126a33.69,33.69,0,0,0,2.63-2.29l5.45,3.29a39.8,39.8,0,0,0,3.29-3.93l-4.2-4.79a33.27,33.27,0,0,0,1.79-3l6.21,1.45a39.44,39.44,0,0,0,1.92-4.76l-5.48-3.25c.31-1.12.58-2.25.78-3.4l6.34-.54a37.74,37.74,0,0,0,.35-5.12l-6.21-1.4c0-.58-.06-1.16-.11-1.75s-.12-1.16-.2-1.73l5.87-2.47a38.58,38.58,0,0,0-1.25-5l-6.34.59a32.58,32.58,0,0,0-1.37-3.21l4.82-4.18a39.59,39.59,0,0,0-2.73-4.34L571,78.71a33.54,33.54,0,0,0-2.29-2.62l3.3-5.46A39.92,39.92,0,0,0,568,67.34l-4.79,4.21a31.08,31.08,0,0,0-3-1.79l1.45-6.22a39.3,39.3,0,0,0-4.75-1.92l-3.26,5.49a32.24,32.24,0,0,0-3.4-.78L549.74,60a41.27,41.27,0,0,0-5.12-.35l-1.4,6.22C542.64,65.87,542.06,65.9,541.48,66Zm29.63,31.17a26.75,26.75,0,1,1-29-24.27A26.75,26.75,0,0,1,571.11,97.13Z"/><path class="cls-2" d="M364.49,148.39A74.2,74.2,0,1,1,364.49,0a73.52,73.52,0,0,1,45.07,15.26L414.44,19a2.49,2.49,0,0,1,.47,3.5l-7.48,9.77a2.5,2.5,0,0,1-3.5.46L399,29A56.34,56.34,0,0,0,364.49,17.3a56.9,56.9,0,1,0,56.2,65.79l1-6.08a2.49,2.49,0,0,1,2.85-2.08l12.15,1.9a2.51,2.51,0,0,1,2.09,2.86l-1,6.07a74.19,74.19,0,0,1-73.29,62.63Z"/><g class="cls-3"><path class="cls-4" d="M392.28,123.93a153.45,153.45,0,0,0,13.65,11.81,74,74,0,0,0,23.85-26.33c-1.65-1.34-3.25-2.7-4.87-4-3-2.42-5.82-4.95-8.58-7.59A56.32,56.32,0,0,1,392.28,123.93Z"/><path class="cls-4" d="M351.07,1.22c-.08,1-.16,2-.23,3-.37,5-.62,9.93-.65,14.9a56.67,56.67,0,0,1,14.3-1.82,57.32,57.32,0,0,1,16.1,2.29c-.14-1-.2-1.46,0,0-.57-4.34-1-8.7-1.29-13.06-.13-1.72-.27-3.43-.41-5.14a74.65,74.65,0,0,0-27.83-.18Z"/><path class="cls-4" d="M389.78,143.94c-4.46-4.16-8.75-8.51-12.94-12.95-.32-.34-.63-.69-.94-1a58.69,58.69,0,0,1-10.68,1.13,56.69,56.69,0,0,1-36.13-12.45,201,201,0,0,0,19.76,28.09,74.25,74.25,0,0,0,40.93-2.79Z"/><path class="cls-4" d="M302.07,34.11c.39,5.27,1.05,10.52,1.79,15.78a142.69,142.69,0,0,0,4,18.71A56.77,56.77,0,0,1,326,32.31q-1.35-5.22-2.63-10.48-1-4-1.81-8.14A75,75,0,0,0,302.07,34.11Z"/></g><path class="cls-5" d="M336.62,45.9a23.32,23.32,0,0,1,8.16,1.53,18.41,18.41,0,0,1,6.67,4.13,16.08,16.08,0,0,1,4.73,11.86,16.92,16.92,0,0,1-2,8A26,26,0,0,1,347,79.27q-4.08,3.24-4.08,3.61l.1.09h.18l4.45-.37c1.85-.18,3.34-.28,4.45-.28a5.21,5.21,0,0,1,3.43.84,5.4,5.4,0,0,1,1.29,3.15,30.33,30.33,0,0,1,.28,4.36c0,2.71-.21,4.29-.65,4.72s-8.46.9-23.72,1l-15.48.19-.74-.93c-.49-.62-.74-1.89-.74-3.8a22.21,22.21,0,0,1,.7-6.49,7.61,7.61,0,0,1,2.41-3.57,51,51,0,0,1,6.34-4.12c.5-.25,1.24-.68,2.23-1.3A53.86,53.86,0,0,0,335.28,71a17.15,17.15,0,0,0,4-5,6,6,0,0,0,.83-2.78,3.43,3.43,0,0,0-1-2.31,2.78,2.78,0,0,0-1.86-1.11,8.81,8.81,0,0,0-2.13.74,8.38,8.38,0,0,0-3.24,3,10.62,10.62,0,0,1-2.23,2.41l-.09.09h-.28c-1.05,0-2.76-.67-5.14-2a14.57,14.57,0,0,1-4.59-3.53,2.85,2.85,0,0,1-.55-1.57,7,7,0,0,1,.83-2.5q3.7-7.52,12.51-9.92A15.51,15.51,0,0,1,336.62,45.9Z"/><path class="cls-5" d="M391.67,46.83a11.15,11.15,0,0,1,1.76.09l3.15.19,4.91.28a39.41,39.41,0,0,1,4.54.37,2.43,2.43,0,0,1,1.48.88,2.64,2.64,0,0,1,.56,1.71l.09,1.86a19,19,0,0,1,.1,2.31l.09,2.23.18,5.47c.31,6.85.62,10.53.93,11a1.19,1.19,0,0,0,1,.37h.37c1.67,0,2.78.37,3.34,1.12S415,77,415,79.27q0,6.95-1.11,8.52c-.25.44-.84.65-1.76.65H411a14.14,14.14,0,0,0-1.67-.09c-.56,0-.91.17-1.07.51a13.76,13.76,0,0,0-.51,2.73,8.46,8.46,0,0,1-1.11,3.52l-.74.84h-7.32q-7.23,0-7.79-.56c-.31-.31-.62-1.57-.92-3.8s-.5-3.46-.56-3.71-3.83-.37-10.93-.37-10.91-.15-11.4-.46-.65-.89-.65-2q0-2.31.18-5.28a17.28,17.28,0,0,1,.47-3.7l3.61-4.64q5.83-7.41,9.36-12.23,8-10.84,9.64-11.86A3.6,3.6,0,0,1,391.67,46.83Zm-.28,16.4a27.81,27.81,0,0,0-3,3.39c-1.89,2.25-3.32,4.06-4.31,5.42a5.33,5.33,0,0,0-1.39,2.5c0,.25,1.79.37,5.37.37a12.79,12.79,0,0,0,3.71-.28c.37-.18.54-.63.51-1.34s0-1.25,0-1.62c0-1.55-.15-3.8-.46-6.77C391.7,63.79,391.57,63.23,391.39,63.23Z"/><g class="cls-6"><g class="cls-7"><path class="cls-4" d="M356.14,62.64a15.89,15.89,0,0,0-4.69-11.08,18.41,18.41,0,0,0-6.67-4.13,25.91,25.91,0,0,0-2.6-.81Q349.1,54.71,356.14,62.64Z"/><path class="cls-4" d="M329.58,66l.09-.09a10.62,10.62,0,0,0,2.23-2.41l0-.06q-2.55-3.21-5.07-6.46c-1.31-1.69-2.59-3.41-3.86-5.15a18.23,18.23,0,0,0-3.16,4.54,7,7,0,0,0-.83,2.5,2.85,2.85,0,0,0,.55,1.57A14.57,14.57,0,0,0,324.16,64c2.38,1.36,4.09,2,5.14,2Z"/><path class="cls-4" d="M348,82.57l-.34,0L343.2,83H343l-.1-.09c0-.21,1-1.12,3-2.72-.73-.83-1.47-1.66-2.19-2.5-2.34-2.69-4.62-5.42-6.87-8.17-.48.52-1,1-1.55,1.53a51.29,51.29,0,0,1-7.29,5c2,2.7,4.12,5.37,6.24,8,3.31,4.12,6.7,8.15,10.12,12.17q11.5-.26,12.1-.85a4.85,4.85,0,0,0,.59-2.62C354,89.37,351,86,348,82.57Z"/><path class="cls-4" d="M338.25,96.35c-5-5.88-10.07-11.67-15.2-17.37l-1.05.66c4.44,5.62,9,11.22,13.6,16.74Z"/></g><g class="cls-7"><path class="cls-4" d="M399.84,92.85C393.05,86.2,386.21,79.61,379.38,73q-2.83-2.73-5.69-5.43-1.44,1.86-3.06,3.91l-3,3.8c1.52,1.62,3,3.24,4.58,4.84l7.13,7.4q9.71,0,10,.36c.06.25.25,1.49.56,3.71s.61,3.49.92,3.8,3,.56,7.79.56H403Z"/><path class="cls-4" d="M382,60.38q3.21,3.1,6.44,6.19c1.28-1.53,2.14-2.53,2.6-3-1.95-1.77-3.89-3.53-5.85-5.29-.88-.79-1.77-1.61-2.66-2.42-.68.91-1.41,1.89-2.18,2.94Z"/><path class="cls-4" d="M411.54,73.64q1.63,1.52,3.3,3a4.31,4.31,0,0,0-.65-1.9A3.44,3.44,0,0,0,411.54,73.64Z"/><path class="cls-4" d="M391.7,64.19a6.75,6.75,0,0,1,.06.71c.22,2.12.36,3.88.43,5.27l2.74,2.63q6.19,5.92,12.53,11.73c1.4,1.29,2.79,2.61,4.21,3.91h.48c.92,0,1.51-.21,1.76-.65a6.25,6.25,0,0,0,.75-2.43c-1.18-1.12-2.39-2.24-3.58-3.36-4.36-4.09-8.73-8.18-13.17-12.19Z"/><path class="cls-4" d="M398.11,47.2l-1.53-.09-3.15-.19a11.15,11.15,0,0,0-1.76-.09,3.6,3.6,0,0,0-2,.56,18.05,18.05,0,0,0-3,3.22c4,3.65,7.87,7.36,11.89,10.94,3.58,3.18,7.09,6.53,10.64,9.85-.2-1.79-.39-4.85-.59-9.18l-.18-5.47-.07-1.68c-.82-.64-1.64-1.29-2.44-1.94C403.31,51.1,400.72,49.14,398.11,47.2Z"/></g></g><ellipse class="cls-8" cx="534.8" cy="284.49" rx="534.8" ry="25.34"/><rect class="cls-9" x="541.78" y="72.7" width="114.96" height="213.01" rx="10.07" transform="translate(1198.51 358.4) rotate(180)"/><rect class="cls-2" x="548.69" y="81.15" width="101.13" height="177.95" rx="8.83" transform="translate(1198.51 340.24) rotate(180)"/><path class="cls-8" d="M607.55,274.73a8.29,8.29,0,1,1-8.29-8.29A8.29,8.29,0,0,1,607.55,274.73Z"/><path class="cls-10" d="M607.48,188.21c-.36-7.55,22.54-3.24,38.14-5.28,10.93-1.43-29.7-64.34-54.94-101.78H557.52a8.81,8.81,0,0,0-7.36,4c21.07,27,54.3,70.44,53.49,75.59-1.19,7.53-46.8,2.07-49.71,11.09-1.59,4.9,32.28,48.48,63.57,87.31H641a8.83,8.83,0,0,0,8.83-8.83V243.2C630.81,220.79,607.69,192.65,607.48,188.21Z"/><path class="cls-11" d="M93.81,241.38a79.13,79.13,0,0,0,35.61,9.05c13.72,0,20.31-5.58,20.31-13.9,0-8.6-6.69-13.25-22.77-20.27-25.37-11.66-38.59-27.83-38.59-48.66,0-28.56,20.8-51.27,58.35-51.27,15.87,0,28,3.45,36.39,7.67l-7.47,34.45a62.82,62.82,0,0,0-29.17-7.16c-12.24,0-18.72,5.44-18.72,12.77,0,8,6.61,11.74,25.23,20.33,25.55,11.43,36.24,27.77,36.24,48.88,0,29.26-20.78,52.38-61.57,52.38-16.8,0-32.94-4.6-40.62-8.93Z"/><path class="cls-11" d="M248,118.57v97.18c0,23.95,7.21,35.7,20.43,35.7s20.44-10.41,20.44-35.7V118.57H328v93.28c0,48.35-20.67,74-60.38,74-39.9,0-58.69-25.48-58.69-74.9V118.57Z"/><path class="cls-11" d="M354.88,120.89c10.47-2,25.41-3.44,45.24-3.44,21.12,0,36.54,3.73,47.28,13.09,10.2,8.54,16.29,23,16.29,38.86,0,17.4-5.3,31.74-14.71,41.15C437.36,222,420.1,227,402.16,227c-3.24,0-6.24-.25-8.53-.38v56.77H354.88Zm38.75,72.87a42.15,42.15,0,0,0,7.76.5c15.33,0,23.65-9.58,23.65-23.11,0-12.56-6.75-21.32-21-21.32a38.14,38.14,0,0,0-10.38,1.1Z"/><path class="cls-11" d="M482.91,120.89c10.48-2,25.41-3.44,45.24-3.44,21.13,0,36.54,3.73,47.28,13.09,10.21,8.54,16.3,23,16.3,38.86,0,17.4-5.3,31.74-14.72,41.15C565.4,222,548.14,227,530.2,227c-3.25,0-6.25-.25-8.53-.38v56.77H482.91Zm38.76,72.87a42.1,42.1,0,0,0,7.75.5c15.33,0,23.66-9.58,23.66-23.11,0-12.56-6.76-21.32-21-21.32a38.11,38.11,0,0,0-10.37,1.1Z"/><path class="cls-11" d="M739.6,198.73c0,55.82-26.87,87.15-69,87.15-44.63,0-66.47-40-66.47-84.35,0-45.85,25.1-85.43,68.86-85.43C719.7,116.1,739.6,158.44,739.6,198.73Zm-94.33,2.39c0,33.36,10.72,50.44,27,50.44,16.75,0,26.14-20.33,26.14-51.26,0-28.37-9.32-49.89-26.36-49.89C656,150.41,645.27,169,645.27,201.12Z"/><path class="cls-11" d="M760.25,120.89a272.62,272.62,0,0,1,45.13-3.44c21.37,0,37.91,3.1,49.13,12.73,9.84,8.51,14.34,20,14.34,35.73,0,19.22-12.22,34.44-25.22,40.09v.74c10.08,4.76,15.41,15.06,19,29.92,4,16.64,8.91,40.39,11.85,46.75H834.22c-2.17-4.66-6-18.83-9.72-38.25-3.57-19.69-8.71-23.95-19.85-23.95H799v62.2H760.25ZM799,190.31h8.8c14.16,0,22.07-8.85,22.07-21.09s-6.55-19.88-19.31-20.11c-6.06,0-9.73.37-11.56,1Z"/><path class="cls-11" d="M916.68,155.07H881.54v-36.5h110v36.5H955.78V283.41h-39.1Z"/><path class="cls-12" d="M939.57,10.4c.62.18,2.24.79,0,0Z"/><g class="cls-13"><path class="cls-4" d="M881.54,121.33q11.24,14.3,22.37,28.67c1.3,1.68,2.58,3.38,3.87,5.07h8.9v11.68c13.16,17.39,26.14,34.93,39.1,52.48V155.07H991.5v-18.7q-7.28-8.93-14.61-17.8H881.54Z"/><path class="cls-4" d="M916.68,226.62v29.7Q928.8,270,941.24,283.41h14.54V271.74c-12.55-14.62-25.09-29.24-37.85-43.69C917.51,227.58,917.1,227.1,916.68,226.62Z"/><path class="cls-4" d="M916.68,283.41h1.1l-1.1-1.48Z"/><path class="cls-4" d="M853.76,199.44q-3.3-4-6.65-7.87c-5.65-6.57-11.49-13-17.43-19.3a19.88,19.88,0,0,1-5.6,12.14q3.1,3.57,6.17,7.16c10.58,12.35,20.61,25.11,30.39,38.06-3.52-11.1-8.61-18.92-17-22.89V206A38.77,38.77,0,0,0,853.76,199.44Z"/><path class="cls-4" d="M760.25,240.56v42.85H799v-1.93Q779.4,261.23,760.25,240.56Z"/><path class="cls-4" d="M861.18,190.94a44.84,44.84,0,0,0,7.37-19.9Q846,144.67,823.33,118.39a154.75,154.75,0,0,0-18-.94l-3,0q16.49,21.24,33.3,42.25Q848.33,175.43,861.18,190.94Z"/><path class="cls-4" d="M799,150.09a32.28,32.28,0,0,1,8.23-.93c-7.39-7.42-14.83-14.79-22.21-22.2q-4.1-4.11-8.15-8.23c-3.66.34-7.1.73-10.27,1.17,10.73,12.13,21.59,24.15,32.4,36.19Z"/><path class="cls-4" d="M639.62,271.78l-30.49-35.25c6.6,21.31,19.73,38.45,39.54,45.65Q644.14,277,639.62,271.78Z"/><path class="cls-4" d="M738.59,216.56c-27.63-31.12-54.49-62.84-80.06-95.71l-2.1-2.7c-17.58,4.54-31.12,16.34-40,32.28q14.22,21.54,29.11,42.62c1.66-27.12,11.87-42.64,26.55-42.64,17,0,26.36,21.52,26.36,49.89,0,21.61-4.59,38-13.06,46q11.46,14.37,23.37,28.35C724.88,263.28,735.42,243.57,738.59,216.56Z"/><path class="cls-4" d="M577,210.55a42.78,42.78,0,0,0,4.76-5.67q-14.37-16.6-28.71-33.24c-.2,13.26-8.49,22.62-23.64,22.62a42.1,42.1,0,0,1-7.75-.5V150.93a38.11,38.11,0,0,1,10.37-1.1c.79,0,1.55,0,2.29.09Q520.64,134,507,118.08a200.42,200.42,0,0,0-24,2.81v57.69Q502,203.93,521.67,228.9v-2.26c2.28.13,5.28.38,8.53.38C548.14,227,565.4,222,577,210.55Z"/><path class="cls-4" d="M521.67,266.45Q502.14,242,482.91,217.26v24.2q15.51,21.12,31.39,42h7.37Z"/><path class="cls-4" d="M482.91,272.63v10.78h8.15Z"/><path class="cls-4" d="M393.63,226.64c2.29.13,5.29.38,8.53.38,14.22,0,28-3.18,38.88-10.18q-11-14.58-22-29.16c-4,4.14-9.94,6.58-17.66,6.58a42.15,42.15,0,0,1-7.76-.5V153.35c-8.35-11.45-16.64-22.95-25-34.42-5.25.55-9.83,1.22-13.78,2V225.78q19,27.5,38.75,54.5Z"/><path class="cls-4" d="M458.84,146.05a43.42,43.42,0,0,0-10.54-14.7Q453.54,138.71,458.84,146.05Z"/><path class="cls-4" d="M408.28,117.66q-3.93-.21-8.16-.21l-3.74,0c17.95,26.57,35.87,53.14,54.36,79.33,1.44,2,2.89,4,4.33,6.07a53.12,53.12,0,0,0,6.09-14C443.36,165.26,426.06,141.28,408.28,117.66Z"/><path class="cls-4" d="M328,118.57h-39.1V121c12.76,21.82,25.4,43.73,39.1,65Z"/><path class="cls-4" d="M288.86,214.2v1.55c0,8.77-.86,15.75-2.53,21.13q12,16.43,24,32.8a54.35,54.35,0,0,0,9.49-14.15Q304.4,234.8,288.86,214.2Z"/><path class="cls-4" d="M278.25,248.83a17.72,17.72,0,0,1-9.83,2.62c-13.22,0-20.43-11.75-20.43-35.7v-4.4q-11.75-14.79-23.31-29.71,2.61,3.36,5.2,6.73-10.42-13.51-21-26.91V211c0,49.42,18.79,74.9,58.69,74.9,13.63,0,25-3,34.08-8.95Q289.87,263,278.25,248.83Z"/><path class="cls-4" d="M248,161.78q-13.29-16.49-27-32.61-4.56-5.32-9.17-10.6h-2.89v15.27c13.39,16.58,26.37,33.48,39.1,50.57Z"/><path class="cls-4" d="M153,184.39c-3.76-1.74-7-3.27-9.84-4.68,4.75,7.18,9.55,14.33,14.34,21.48,9.69,14.45,20.18,28.46,30.84,42.31a58.1,58.1,0,0,0,.9-10.23C189.22,212.16,178.53,195.82,153,184.39Z"/><path class="cls-4" d="M129.42,250.43h-.5q10.83,16.23,21.93,32.27c11.37-3.18,20.25-8.77,26.58-16.05-11-15.22-21.93-30.41-32.66-45.79-15.19-21.77-29.75-44-44.89-65.78-2.24-3.24-4.46-6.49-6.69-9.74a51.8,51.8,0,0,0-4.82,22.27c0,20.83,13.22,37,38.59,48.66,16.08,7,22.77,11.67,22.77,20.27C149.73,244.85,143.14,250.43,129.42,250.43Z"/><path class="cls-4" d="M115.83,136.82c4.37,7.26,8.87,14.46,13.44,21.62,2.58-4.32,8.39-7.15,17.2-7.15a62.82,62.82,0,0,1,29.17,7.16l6.71-30.92-4.47-5.84c-8-3.1-18.32-5.36-31.16-5.36-15.12,0-27.52,3.69-36.95,10C111.73,129.83,113.74,133.34,115.83,136.82Z"/></g><circle class="cls-1" cx="780.54" cy="128.74" r="5.98"/><circle class="cls-1" cx="819.73" cy="85.92" r="6.61"/><path class="cls-1" d="M864.28,123.83a3.74,3.74,0,1,0,3.74-3.74A3.74,3.74,0,0,0,864.28,123.83Z"/><circle class="cls-1" cx="898.39" cy="70.11" r="7.2"/><polygon class="cls-1" points="781.44 129.27 779.65 128.22 819.43 84.39 867.79 122.36 897.54 69.52 899.24 70.7 868.25 125.31 820.03 87.45 781.44 129.27"/><path class="cls-2" d="M683.55,245.72c-6.55,1.91-12.92,3.27-12.16,5.14s12.74,2.23,14.79.74,1.91-7.89,1.91-7.89Z"/><path class="cls-9" d="M678.27,197a2.79,2.79,0,0,0-1.84,2.11c-.91,4.06,5.42,44.68,6.47,46.45l5.05.29c1.26.66,6.06-23.88,5.61-30.81a17.43,17.43,0,0,0-4.23-9.84l.84,0C685,203.8,680.67,201.5,678.27,197Z"/><path class="cls-9" d="M731.19,193.06c0-3.21-13.73-2.72-22-1.91-13.93,1.37-26.86,3.3-31.5,6.14,1.11,5,5.41,8.33,10.05,11,4.06,1,22.7,5.32,32.77,3.54C731.84,209.82,731.21,196.26,731.19,193.06Z"/><path class="cls-14" d="M725.31,138.47c-12,.32-34.56,11-35.19,10.63S680,125.3,678.86,124.86a2.44,2.44,0,0,0-3.13,1.82c-.13,1.47,9,28.53,9.21,30.42s29.4-1.36,32-1.17S725.31,138.47,725.31,138.47Z"/><path class="cls-2" d="M723.69,280.36c-4.34,4.74-8.33,10.37-6.92,12s10.35-4,11.75-6,0-10.43,0-10.43Z"/><path class="cls-15" d="M723.85,138.33c-10.6,1.29-32.33,10.36-32.33,10.36l1.08,9L716.3,156Z"/><path class="cls-9" d="M715.58,190.3c-7.08,4,4.95,52.77,6,55.78s2.11,34.28,2.11,34.28h4.83s6.88-24.05,7.49-29.87a10.64,10.64,0,0,0-3.87-9.84s8.57-25.91,6.69-40.83C737.42,188.65,726.85,183.92,715.58,190.3Z"/><path class="cls-5" d="M738.79,199.3c.81-8.9-.42-13.07.05-19.17s2-22.12,2.5-26.29.1-19.81-12.34-17-14,7.31-15.35,18.51-.43,15.47-.23,24.78c.06,2.6.11,7.27.11,7.27s7.77,7.73,12.7,10.88S738.79,199.3,738.79,199.3Z"/><path class="cls-14" d="M733.07,137c-6.91-.36-5.94,10.2-1.15,14.33s18.17,20.15,19,21.46c.74,1.12-11.19,14.23-15,21.17-.64,1.16,1,4.06,1,4.26.11,1.4,21.39-20.26,22.73-23.27S741.62,137.44,733.07,137Z"/><path class="cls-15" d="M729.79,138c-4.69,3.28-2.11,9.6,3.29,15.47s16.72,17.83,16.72,17.83l7-4.42s-7.76-16.34-13.86-23S734.14,135,729.79,138Z"/><path class="cls-5" d="M690.12,149.1c-.26.88-.59,8.59,0,8.58s3.89.58,4.83,0-1.28-9.78-1.66-9.67S690.34,148.37,690.12,149.1Z"/><path class="cls-16" d="M722.52,140.67c1,1.36,6.41-1.61,7.27-2.68s1.53-3.89,1.18-6.7-3.7-2.59-5.66-1.88S721.11,138.79,722.52,140.67Z"/><path class="cls-14" d="M725.35,108.66A9.46,9.46,0,0,0,714.76,118c0,7.41,4.12,18.39,9.31,18.37,4.39,0,11.17-6.48,11.74-13.89.08-1,1.79-1.07,1.38-3.71-.46-3-2-1.47-2.17-2.07C733.77,112.06,730.88,109.25,725.35,108.66Z"/><path class="cls-9" d="M731.67,120c-1.17.35-.7,6.22-2.93,7.16s-4.23-.71-7.75,0-4,1.77-4,1.77l-1.84-6.45a6.45,6.45,0,0,0-.41,3.27c.25,1.76,1.19,9.8,6.12,10.88s12.08-3,13.49-6.89a24.22,24.22,0,0,0,1.44-7.26,1.25,1.25,0,0,1-2-.6c-.58-1.64,0-3.85,1.42-4.57s-.24-6-3.41-8-7.28-3.64-12.09-2.35-8,1.64-8.09,4.57.8,7,3.15,6.45,4.71-3.28,8.11-4,7.28-1.53,8.92-.12S731.67,120,731.67,120Z"/><path class="cls-16" d="M719.61,121c-1.1.44-2.47,5.16-1.65,5.63s1.82.71,2.18.41S719.87,120.91,719.61,121Z"/><path class="cls-14" d="M735.23,194.31c-3.8,1.62-6.28,1.1-6.44,2.13s3.48-.12,3.84.42-5.87,4.65-5.43,5.24,4.79-2.51,5-2.37-4.4,4.36-4,4.73,5-3.89,5.28-3.6-3.77,5.21-3.12,5.4,4-4,4.49-4.25-2.22,3.35-1.69,3.69,5.28-7,5.66-9.83S736.92,193.59,735.23,194.31Z"/><path class="cls-14" d="M677,127.65c-3.07-2.42-4.75-6.78-4.59-7.72s1.43,0,1.43,0,0-1,.6-1.42,1.37.49,1.37.49a2.36,2.36,0,0,1,1-1.46c.78-.34,1.14.89,1.14.89s-1.16-7-.18-7,1.75,10,2.3,9.92,2.22-1.92,2.8-1.54-2.31,4.44-2.46,5.28S679.25,129.43,677,127.65Z"/><path class="cls-15" d="M719.7,154.76a23.47,23.47,0,0,1,.4-7.83,21.24,21.24,0,0,1,2.8-6.12l.5.37a20.25,20.25,0,0,0-2.7,5.92,22.67,22.67,0,0,0-.38,7.62Z"/><rect class="cls-8" x="735" y="208.37" width="0.62" height="4.22"/><rect class="cls-8" x="732.56" y="217.68" width="3.82" height="0.62" transform="translate(396.92 905.76) rotate(-80.39)"/><rect class="cls-8" x="731.34" y="226.36" width="3.93" height="0.62" transform="translate(316.29 871.05) rotate(-74.27)"/><rect class="cls-8" x="728.58" y="234.57" width="4.28" height="0.62" transform="translate(365.41 909.92) rotate(-79.4)"/><path class="cls-8" d="M730,245.52a11.93,11.93,0,0,1-.16-3.63l.62.07a11,11,0,0,0,.15,3.44Z"/><rect class="cls-8" x="731.01" y="249.2" width="0.62" height="3.75"/><polygon class="cls-8" points="730.83 261.69 730.22 261.55 731.23 257.1 731.83 257.24 730.83 261.69"/><path class="cls-8" d="M729.25,270.13l-.61-.1a13.48,13.48,0,0,1,1-3.35l.57.25A12.83,12.83,0,0,0,729.25,270.13Z"/><path class="cls-8" d="M727.74,278.57a8,8,0,0,1,.13-2.71l.6.14a7.19,7.19,0,0,0-.11,2.49Z"/><path class="cls-5" d="M756.8,164.81c.74,1.17,2.8,3.78,2,4.14s-8.33,4.57-8.68,4.46-1.89-1.87-1.76-2.7S756.34,164.08,756.8,164.81Z"/><path class="cls-14" d="M271.63,190.71c.44,9.27,1.49,21.73,6.14,26s35.7,18.48,38.75,17.09S288,214,286.28,208.67s-1.16-22-3.58-24.69S271.36,185.06,271.63,190.71Z"/><path class="cls-14" d="M312.48,230.05c4,2.29,9.16,2.68,9.32,3.27s-3.91,1-3.95,1.05,6.66,3,6.61,3.77-7.72-3-7.64-2.49,8.11,4.25,7.68,5-7.5-4.41-8-3.89,5.6,4.66,5,5.32-6.32-4.85-6.34-4.47,2.83,5.45,2.47,5.52-4.51-5.36-6-8-7.6-4.87-7.6-4.87Z"/><path class="cls-2" d="M330.12,298.81c1.24-2.63-13.82-8.38-12.31-10.92a5.29,5.29,0,0,0,.32-.79,49.93,49.93,0,0,1-6.27-1.22c0,1.82.43,3.26.3,4.17-.4,3-.3,5.42,2.7,5.87C320.82,296.81,329.92,299.24,330.12,298.81Z"/><path class="cls-2" d="M313.4,299.8c1.1-2.2-13.83-8.38-12.32-10.92a3.74,3.74,0,0,0,.32-.79,50.13,50.13,0,0,1-6.26-1.22c0,1.82.43,3.26.3,4.17-.32,2.32-1.16,6.46,1.2,6.56C302.88,297.85,313.17,300.27,313.4,299.8Z"/><path class="cls-9" d="M271.08,224.91s43.23-3.19,50.08,2.69c8.47,7.27-14.56,13.6-14.56,13.6l-17-.61Z"/><path class="cls-15" d="M267.28,179.4c-6.14,4.89,5.94,22.29,5.94,22.29l13.23-9.21S278.5,170.46,267.28,179.4Z"/><path class="cls-5" d="M247.91,179.54c-5.22,8.27-.92,45.14,3.24,51s23.08,5.29,26.78,1.16,2.66-37-.92-48C274.77,176.79,254.71,168.8,247.91,179.54Z"/><path class="cls-9" d="M324.51,237.44c0-.71.47-3-.17-4.8s-3.06-2.65-6.21-3c-5.85-.64-70.41-8-69.53,2.19,1.76,20.33,7.56,23,41.57,19.44,12.12-1.28,13.29-2.43,20.1-3.38,0,9.08.19,30.44,1.13,40.33a68.68,68.68,0,0,0,7.44.62C320.55,282.29,324.78,243.17,324.51,237.44Z"/><path class="cls-14" d="M243.21,195.32c.45,9.27,1.5,21.74,6.14,26s35.7,18.48,38.75,17.1-28.52-19.78-30.24-25.14-1.15-22-3.58-24.68S242.94,189.67,243.21,195.32Z"/><path class="cls-15" d="M247.11,178.78c-7.68,1.61-4.7,22.59-4.7,22.59l16-.49S261.15,175.84,247.11,178.78Z"/><path class="cls-16" d="M263.27,181c-1.45,1-5.77-3.75-6.26-5.09s-.19-4.35,1.11-7,4.51-1.3,6.21.06S265.29,179.66,263.27,181Z"/><path class="cls-14" d="M257.89,151a9,9,0,0,1,12.21,5.61c2.06,6.74,1.31,17.87-3.42,19.29-4,1.19-12-2.84-14.51-9.42-.33-.84-1.92-.48-2.27-3-.39-2.81,1.42-1.88,1.4-2.48C251.15,156.42,253,153.07,257.89,151Z"/><path class="cls-16" d="M266.75,160.41c1.86.25,5.77,7,4.69,8.06s-2.54,1.79-3.2,1.47S266.3,160.34,266.75,160.41Z"/><path class="cls-9" d="M249.45,160.19c1.4-10.56,10.45-17.75,13-16.11s0,3.8,0,3.8,5.17-4.14,7.28-1.21S268,151,268,151s6.82-2,7,2.05-8,4.29-10,3.62c-6.31-2.17-12.45,3.55-13.67,4.29S249.12,162.63,249.45,160.19Z"/><path class="cls-14" d="M284.06,234.66c4,2.29,9.17,2.69,9.32,3.27s-3.9,1-3.94,1,6.65,3,6.61,3.77-7.72-3-7.65-2.49,8.11,4.25,7.68,5-7.5-4.41-8-3.89,5.6,4.67,5,5.32-6.31-4.85-6.34-4.47,2.83,5.46,2.48,5.53-4.51-5.36-6-8-7.6-4.87-7.6-4.87Z"/><path class="cls-9" d="M305.28,244.3l-11,43.66h7.23s13.89-28.35,15.3-38.84-3-13.46-3-13.46Z"/><path class="cls-2" d="M817.26,141.88A28.73,28.73,0,1,0,843.33,173,28.74,28.74,0,0,0,817.26,141.88Zm-3.87,43.5a14.94,14.94,0,1,1,16.2-13.56A14.94,14.94,0,0,1,813.39,185.38Z"/><path class="cls-2" d="M803.23,158.41l.33.31Z"/><path class="cls-5" d="M838.92,181.88c-1.56-2.51-3.4-4.92-6.08-6.3a13.54,13.54,0,0,0-3.57-1.2l-.12,0a14.92,14.92,0,0,1-3,5.77,2.83,2.83,0,0,0,.28.2c.32.22.65.43,1,.67l.23.19.12.12c.56.59,1.11,1.22,1.63,1.85.23.28.44.59.66.88.07.12.14.24.2.36a18.9,18.9,0,0,1,1,2.13c.32.76.62,1.53.93,2.3.12.46.27.92.43,1.36s.42.85.62,1.28a3.54,3.54,0,0,0,.41.67,28.54,28.54,0,0,0,6.46-8.12A18.18,18.18,0,0,0,838.92,181.88Z"/><path class="cls-5" d="M797.59,164.1a23.52,23.52,0,0,0,2.72,2.44,14.8,14.8,0,0,1,4.21-6.95l-.32-.29-.64-.58a4.93,4.93,0,0,1-.61-.6c-.4-.42-.79-.85-1.15-1.3-.23-.27-1-1-1-1.37l.25.4-.27-.45c-.13-.23-.26-.46-.38-.69-.23-.47-.45-1-.63-1.43a6.55,6.55,0,0,1-.55-1.45c.16.49.18.53.06.15l-.09-.37c0-.24-.1-.47-.13-.71s0-.41-.07-.61V150c0-.47.06-1,.11-1.43,0-.23.06-.46.08-.7-.07.69.09-.52.12-.67a3.61,3.61,0,0,0,.08-.65c0-.15,0-.18,0-.18a1.11,1.11,0,0,0,0-.13,29.07,29.07,0,0,0-7.1,6.36,13.48,13.48,0,0,0,.88,4.68A20.56,20.56,0,0,0,797.59,164.1Z"/><path class="cls-5" d="M803,179.78a14.87,14.87,0,0,1-3.13-7.5l-.06.09c-.1.14-.6.7-.11.17l-.5.54c-.18.16-.36.32-.55.47l-.29.25-.09,0-.2.11c-.24.13-.48.27-.73.38l-.16.06-.53.15-.72.12c-1,.16-2.08.28-3.13.38q-3.18.3-6.39.5a28.47,28.47,0,0,0,3,8.52c2-.19,4-.41,5.91-.69C798.09,183,801.1,182,803,179.78Zm-4.79-5.86c-.08.07-.15.11-.16.1Z"/><path class="cls-5" d="M816.52,199.18a13.73,13.73,0,0,0,1.93-3.82,11.29,11.29,0,0,0-.37-8.47,17.56,17.56,0,0,0-.88-1.66,15.09,15.09,0,0,1-3.81.15,15.44,15.44,0,0,1-2.82-.53c0,.16,0,.36,0,.62.13,1,.4,2,.58,3,.05.23.09.47.12.7s0,.29.05.43c0,.29,0,.19,0-.29.14.21-.05,1-.07,1.29s0,.49-.08.74a13.07,13.07,0,0,1-.45,1.24l-.1.25a2,2,0,0,0-.13.22c-.26.41-.55.8-.84,1.19s-.64.69-.88,1.06c.2-.28.4-.38,0,0a.35.35,0,0,0,0,.08.35.35,0,0,1,0-.08l-.5.48c-.76.7-1.57,1.33-2.33,2a29,29,0,0,0,10.57,1.31Z"/><path class="cls-5" d="M831.43,155.45a16.32,16.32,0,0,0-6,4.64A15,15,0,0,1,829,166l.78-.62.63-.46.28-.22c.32-.21.68-.38,1-.55.83-.42,1.72-.66,2.55-1.05l.61-.14c.38-.07.75-.11,1.13-.16.22,0,.45,0,.67,0l.8.06.23.07.66.21a4.71,4.71,0,0,1,.52.21.9.9,0,0,1,.41.18l.23.09-.2-.07.53.38a13.12,13.12,0,0,0,2,1,2.92,2.92,0,0,0,1.23.29,28.57,28.57,0,0,0-4.53-11A15.69,15.69,0,0,0,831.43,155.45Z"/><path class="cls-5" d="M814.23,141.77a18.43,18.43,0,0,0-3.65,6.28,21.2,21.2,0,0,0-1.09,8.46,14.91,14.91,0,0,1,6.55-.89.54.54,0,0,0,0-.18c0-.05,0-.37,0-.53,0-.58,0-1.17.05-1.75a17.23,17.23,0,0,1,.17-1.89c0-.33.11-.67.16-1,0-.06,0-.11,0-.14l0-.18a18.94,18.94,0,0,1,1.17-3.18,1.63,1.63,0,0,1,.11-.23l.05-.09.37-.65c.25-.43.5-.86.78-1.27a20.51,20.51,0,0,1,1.65-2.15,28.49,28.49,0,0,0-3.37-.5A28.08,28.08,0,0,0,814.23,141.77Z"/><g class="cls-7"><path class="cls-4" d="M814.45,144.7c-.71-.59-2.11-.18-2.93,0a23.67,23.67,0,0,0-3,.84,33.66,33.66,0,0,0-5.64,2.64,34.86,34.86,0,0,0-5,3.58,23,23,0,0,0-2.26,2.16,9.67,9.67,0,0,0-1,1.26,8.11,8.11,0,0,0-.67,1.47c-.22.54.44,1.25,1,.91a12.25,12.25,0,0,0,1.25-.76c.4-.32.76-.66,1.14-1,.71-.66,1.43-1.32,2.17-2a34.29,34.29,0,0,1,4.8-3.42,36.5,36.5,0,0,1,5.26-2.56c.94-.38,1.88-.75,2.84-1.08s1.93-.49,2.35-1.33a.65.65,0,0,0-.23-.76Z"/><path class="cls-4" d="M791.68,160.8c-1,.48-1.44,2.14-1.73,3.13a6.55,6.55,0,0,0-.24,3.84.44.44,0,0,0,.83.07,21.59,21.59,0,0,0,1-3.47c.15-.57.35-1.12.51-1.69a3,3,0,0,0,.25-1.55.45.45,0,0,0-.63-.33Z"/><path class="cls-4" d="M831.4,172.91c-.54,1.72-.72,3.47-1.43,5.15a12.09,12.09,0,0,1-1.34,2.31,4,4,0,0,0-1.15,2.21.39.39,0,0,0,.36.42c1.9.15,3.22-2.74,3.83-4.17.76-1.78,1.25-4.1.49-6a.42.42,0,0,0-.76,0Z"/><path class="cls-4" d="M825.44,184.37c-.72.28-1.34.73-2.07,1s-1.41.19-1.84.74a.41.41,0,0,0,0,.5c.57.71,1.73.35,2.45.09a3.46,3.46,0,0,0,2-1.74c.16-.38-.27-.68-.6-.55Z"/></g><path class="cls-1" d="M485.72,94.06a7.35,7.35,0,0,1,4.88-1.65,6.31,6.31,0,0,1,4.74,2.81,5.7,5.7,0,0,1,.91,5.84,7.34,7.34,0,0,1-2.38,3.39,6.32,6.32,0,0,1-4.88,1.44,7.16,7.16,0,0,1-4.59-2.82l-.36-.47a3.6,3.6,0,0,1-.88-2.51,6.83,6.83,0,0,1,1.32-4.74A5.52,5.52,0,0,1,485.72,94.06Zm-17.8-31.19a15.78,15.78,0,0,1,4.18-2.5,14.43,14.43,0,0,1,4.6-.58,16,16,0,0,1,4.72.59,13.34,13.34,0,0,1,6.95,4.72,14,14,0,0,1,2.84,6.2,14.79,14.79,0,0,1-.84,7.36,17.4,17.4,0,0,0-.95,4.13,8.69,8.69,0,0,0,.51,3.12,5,5,0,0,1,.38,2,2.47,2.47,0,0,1-1,1.28q-.72.57-4.26,2.67t-4.23,2.43a1.35,1.35,0,0,1-1.21.08,2.19,2.19,0,0,1-.82-.64,21.24,21.24,0,0,1-1.66-3.92,15.87,15.87,0,0,1-1.16-4.53A8.77,8.77,0,0,1,477,81.69a11.62,11.62,0,0,0,1.14-3.27,3.71,3.71,0,0,0-.54-2.4l-.14-.32-.15-.2a1.94,1.94,0,0,0-3.07-.39q-1.39,1.08-1.16,6.32c.05,1.17-.06,1.86-.32,2.06a.34.34,0,0,1-.25.09l-.2.15q-1.43.78-7.35.27a3.85,3.85,0,0,1-2.58-.86,6.61,6.61,0,0,1-.85-2.75,19.21,19.21,0,0,1,.47-7.76,19.11,19.11,0,0,1,3.21-7.11A15.36,15.36,0,0,1,467.92,62.87Z"/><path class="cls-1" d="M758.1,94.9a9.36,9.36,0,0,1,5.45,3.65q1.94,2.72.83,7a7.13,7.13,0,0,1-1.13,2.58,7.28,7.28,0,0,1-4.06,2.86,9.41,9.41,0,0,1-5.26.22,8.07,8.07,0,0,1-5.24-3.82,9.1,9.1,0,0,1-.7-6.81l.19-.73A4.57,4.57,0,0,1,750,97a8.75,8.75,0,0,1,5.81-2.34A6.89,6.89,0,0,1,758.1,94.9Zm17.71-42.12a19.52,19.52,0,0,1,5.75,2.29,18.43,18.43,0,0,1,4.16,4.19,20.34,20.34,0,0,1,3,5.22,17,17,0,0,1,.63,10.67,17.87,17.87,0,0,1-4.06,7.67,18.76,18.76,0,0,1-8.08,4.84,21.56,21.56,0,0,0-4.9,2.25,11,11,0,0,0-2.76,2.92,6.21,6.21,0,0,1-1.72,1.93,3.16,3.16,0,0,1-2.09-.05q-1.14-.3-6-2.24t-5.73-2.39a1.75,1.75,0,0,1-1-1.16,2.93,2.93,0,0,1,0-1.32,25.9,25.9,0,0,1,2.68-4.71,19.82,19.82,0,0,1,3.66-4.68,11.25,11.25,0,0,1,4.43-1.71A14.61,14.61,0,0,0,768,75.11a4.7,4.7,0,0,0,2-2.4l.22-.39.08-.31a2.45,2.45,0,0,0-2-3.39Q766.16,68,761,72.34c-1.13,1-1.91,1.38-2.32,1.27a.43.43,0,0,1-.28-.18l-.32-.09q-1.87-.82-6-7.2c-.94-1.5-1.31-2.59-1.13-3.28a8.47,8.47,0,0,1,2.11-3A27.47,27.47,0,0,1,771,52.07,20.28,20.28,0,0,1,775.81,52.78Z"/><path class="cls-1" d="M261,56.46a5.79,5.79,0,0,1,2.47-.38c.23,0,.45.39.67,1.15.41,1.38,1,4.21,1.7,8.48q5.29,27.65,5.11,37.35l-.15,2.18-6.1,1.79-3.8,1.22a6,6,0,0,1-2.87.34,2.6,2.6,0,0,1-1.55-1.63,43.83,43.83,0,0,1-1.69-5l-1-3.31q-2.26-7.75-5-18.07t-3.23-12.75a6.46,6.46,0,0,1-.18-3.31q.82-2.16,7.51-5A73.16,73.16,0,0,1,261,56.46Zm1.66,54q4.75-1.4,8.07.33a9.27,9.27,0,0,1,4.56,6,10.75,10.75,0,0,1-.92,8.57,10.9,10.9,0,0,1-6.69,5.33,8.44,8.44,0,0,1-2.91.4,11.46,11.46,0,0,1-6.32-2,8.61,8.61,0,0,1-3.94-4.63,10.25,10.25,0,0,1,.4-6.68,12.56,12.56,0,0,1,4.39-5.72A10.24,10.24,0,0,1,262.63,110.43Z"/><path class="cls-9" d="M950.08,32.67c-6.38.91-10.64-8.34-7.59-11.55s12.18-4.3,14.74-2.65,6.4-2.07,10.79-.76,8.4,8.44,7.49,13.92,7.13,9.9,11.52,15.1,6.94,21.49.91,25-21.55-4-24.3-7.34-9.81-8.81-10.58-11.12S953.29,32.21,950.08,32.67Z"/><path class="cls-16" d="M943.18,65.69c-.26,4-5.23,16.57-1.63,17.8s7.65-3.52,10-12.41S943.18,65.69,943.18,65.69Z"/><path class="cls-15" d="M960.22,47.74c-9.73-2.37-17,17.43-17.57,19.54s14.42,6.35,15.23,5.43S968.43,49.73,960.22,47.74Z"/><path class="cls-5" d="M966,45.08c10,.45,14.25,18.19,14.25,24.56s-.61,33.65-2.73,35.77-29.71,3-31.83,0c-1.18-1.67,5.71-9.1,6.29-18.79.47-7.85-3.2-13.34-3-20.48C949.11,59.71,952.7,44.47,966,45.08Z"/><path class="cls-9" d="M974.41,101C979.67,104,957.85,111.78,956,116s-31.53,5.45-37,4.54-13.34-2.44-10.61-9.41c1.45-3.68,26.6-11,36.45-11C958.39,100.21,972,99.52,974.41,101Z"/><path class="cls-9" d="M976,101.47c5.26,3.1,1.82,10.31,0,14.56s-31.53,5.45-37,4.54-13.34-2.44-10.62-9.41S970.89,98.44,976,101.47Z"/><path class="cls-14" d="M927.81,111.49c1.6-3.5,13.08-2.39,14.89,8.69s-2,41.17-3.87,43-6.09.92-6.89-.5S924.45,118.87,927.81,111.49Z"/><path class="cls-17" d="M955.88,101.85c-.07.53-11.14,4.09-11.82,4.32s-25.26.09-25.86-.18-.82-1.41-.82-1.41l34.41-4.24Z"/><path class="cls-14" d="M908.47,110.79c1.92-3.33,13.25-1.13,14,10.07s-6.34,39.39-8.4,41-5.7,1.74-6.36.25S904.42,117.82,908.47,110.79Z"/><path class="cls-8" d="M944.68,105.13c6.06-1.82,11.71-3.59,11.71-3.59l-14.84-2.72Z"/><path class="cls-9" d="M939.87,161.2c3.67,4,0,5.07-.88,6.16-1.79,2.08-13.4,8.8-14.66,7.64-2.83-2.63,4.29-9.77,6.77-11.93S939,160.22,939.87,161.2Z"/><path class="cls-14" d="M980.29,69.64c2.07,7.5,1.72,22.74,1.77,24.25s-27.14,8.07-28.7,8.34-8.49-.35-8.48-2.06,3.88-4.46,6-3.85,3.64,2.73,4.85,1.82,16.07-7,16.37-8.19-4.85-16.67-4.85-19.4S979,64.81,980.29,69.64Z"/><path class="cls-8" d="M911.1,87l1.58-1.08s28.48-.31,28.87,0,2.28,9.5,2.81,11.22,1.67,6.15,1.44,6.54-1.12,1.46-1.12,1.46Z"/><path class="cls-9" d="M914.06,161.85c4.56,3,.33,4.82-1,6.1-2,1.92-10.13,10.86-11.64,10-3.4-1.84,4-13.46,6.26-15.89C908.37,161.35,913,161.12,914.06,161.85Z"/><path class="cls-15" d="M970.05,47.51c10,.19,12,21.19,12,23.38s-15.57,2.45-16.12,1.36S961.6,47.34,970.05,47.51Z"/><path class="cls-2" d="M941.82,87.84l3.48,15.67a1.56,1.56,0,0,1-1.53,1.9H917.26a1.56,1.56,0,0,1-1.49-1.07l-5.15-15.67a1.57,1.57,0,0,1,1.49-2h28.18A1.56,1.56,0,0,1,941.82,87.84Z"/><path class="cls-4" d="M926.88,93.13c1.41,0,1.14,2.7,2.2,3.76a2.26,2.26,0,0,1-1.78,3.76c-2.52.23-2.61-3.29-2-3.76C926.32,96,925.34,93.12,926.88,93.13Z"/><path class="cls-16" d="M966.77,46.29c.16,2.59-3.51,4.55-4.88,4.32s-4.15-1.07-3.36-2.15S957.8,37,959.85,35.38,966.3,38.87,966.77,46.29Z"/><path class="cls-14" d="M929.66,67.49C927,62.77,924.71,59,925,57.69s1.4-2,4.06.76,11.36,12.74,13.54,15.68,4,7.7,1.61,9.66C940.09,86.93,932.3,72.21,929.66,67.49Z"/><path class="cls-14" d="M927,62.66c-1.69-2.54-2-4.14-3.18-6-.4-.6-2-2.91-1.71-3.28s2.1,2.33,2.15,2-2.49-3.75-2.19-4.06,2.72,3,2.8,2.8-2.52-4.05-2.19-4.24c.53-.3,2.73,3.77,2.94,3.6s-1.78-3.09-1.35-3.47,3.18,4.39,3.39,4.95,1-3.38,2-3c.53.18,0,3-.75,5-.6,1.53,1,2.34,2.36,3.84.81.9-3.83,2.53-3.83,2.53Z"/><path class="cls-14" d="M969.74,30.59c1.32,6.28-2.06,12.3-7.54,13.45s-8.85-3.46-10.17-9.73-.08-11.84,5.4-13S968.43,24.32,969.74,30.59Z"/><path class="cls-16" d="M954.19,35c.76-.15,3.54,5.12,3.49,5.62s-1.58.92-2.3.45S954.19,35,954.19,35Z"/><path class="cls-9" d="M947.31,27.06c2.24,2.38,2.76,7,4.24,3.84s3.42-5.85,6.83-6S965.44,29.7,965,32s-.76,3.41,0,4,1.12.5,1.69,0-.8-5.32,1.11-5.34,2.47,2.28,2.11,4.13,1,5.29,1,5.29L972,28.34l-2-7.22h-6l-10.85-.82Z"/><path class="cls-1" d="M982.37,200.23a3.74,3.74,0,0,1,1.55.38q.2.09.12.84-.15,1.37-1.07,5.43-3.62,17.61-6.09,23.3l-.62,1.25-4-.43-2.54-.2a3.81,3.81,0,0,1-1.78-.51,1.63,1.63,0,0,1-.51-1.33,26.38,26.38,0,0,1,.22-3.37l.23-2.19q.55-5.13,1.45-11.89t1.2-8.32a4.19,4.19,0,0,1,.7-2c.67-.72,2.56-1.09,5.66-1.13A47.2,47.2,0,0,1,982.37,200.23Zm-12.18,32.28a6.82,6.82,0,0,1,4.69,2.17,5.91,5.91,0,0,1,1.23,4.63,6.83,6.83,0,0,1-2.63,4.84,7,7,0,0,1-5.25,1.52,5.67,5.67,0,0,1-1.82-.47,7.41,7.41,0,0,1-3.24-2.74,5.44,5.44,0,0,1-1.19-3.69,6.55,6.55,0,0,1,1.86-3.86,8,8,0,0,1,4-2.3A6.51,6.51,0,0,1,970.19,232.51Z"/><path class="cls-2" d="M126.48,240.26a40.71,40.71,0,1,0,52.7-23.6A41.08,41.08,0,0,0,126.48,240.26Zm70,27.22a34.39,34.39,0,1,1-19.57-44.87A34.4,34.4,0,0,1,196.46,267.48Z"/><path class="cls-18" d="M151.94,287.42a34.73,34.73,0,1,0-19.57-44.87A34.4,34.4,0,0,0,151.94,287.42Z"/><path class="cls-19" d="M138.51,232.28a34,34,0,0,1,28.55-1.79,34.88,34.88,0,0,1,13.44,55.14,34.86,34.86,0,0,0-3.61-63A34.24,34.24,0,0,0,138.51,232.28Z"/><path class="cls-2" d="M238.7,291.56a6.14,6.14,0,0,1-8.37,2.55L196.2,275.64l5.8-11,34.14,18.46A6.3,6.3,0,0,1,238.7,291.56Z"/><path class="cls-20" d="M704.65,89.94l0-7.59a8.86,8.86,0,0,1,2.4-7.37,23.27,23.27,0,1,0-28.6,3.69,9.11,9.11,0,0,1,4.39,6.57l2,7.32C691.27,92.24,698.25,91.76,704.65,89.94Z"/><path class="cls-21" d="M697.31,36.46a23.26,23.26,0,0,1,3.46,35.46,8.86,8.86,0,0,0-2.4,7.37l0,7.59a72.88,72.88,0,0,1-14.4,2.29l.93,3.39c6.4-.32,13.38-.8,19.78-2.62l0-7.59a8.86,8.86,0,0,1,2.4-7.37,23.27,23.27,0,0,0-9.77-38.52Z"/><path class="cls-4" d="M701.59,58.33a.46.46,0,0,0-.66,0l-9.41,10.56-11.1-7.82a.48.48,0,0,0-.66.11.46.46,0,0,0,.12.65l11.28,8,2,15a.46.46,0,0,0,.53.4.46.46,0,0,0,.4-.52l-2-15L701.63,59A.47.47,0,0,0,701.59,58.33Z"/><path class="cls-5" d="M684.87,92.56l1.67,6.07a8.19,8.19,0,0,0,9.19,7l1.86-.25a8.19,8.19,0,0,0,7-9.19l0-6.29C698.25,91.76,691.27,92.24,684.87,92.56Z"/><rect class="cls-15" x="681.05" y="80.68" width="25.53" height="6.87" rx="2.21" transform="translate(-5.04 91.95) rotate(-7.55)"/><rect class="cls-15" x="681.89" y="87.01" width="25.53" height="6.87" rx="2.21" transform="matrix(0.99, -0.13, 0.13, 0.99, -5.86, 92.11)"/><rect class="cls-15" x="682.73" y="93.35" width="25.53" height="6.87" rx="2.21" transform="translate(-6.69 92.28) rotate(-7.55)"/><path class="cls-5" d="M704.18,79.31a2,2,0,0,1,.28.81l.33,2.43a2.21,2.21,0,0,1-1.9,2.48L682,87.81a1.45,1.45,0,0,1-.36,0,2.21,2.21,0,0,0,2.2,1.09l20.93-2.78a2.21,2.21,0,0,0,1.9-2.48l-.32-2.43A2.21,2.21,0,0,0,704.18,79.31Z"/><path class="cls-5" d="M705,85.63a2.17,2.17,0,0,1,.28.81l.32,2.43a2.21,2.21,0,0,1-1.9,2.48l-20.93,2.78a1.37,1.37,0,0,1-.35,0,2.21,2.21,0,0,0,2.2,1.09l20.93-2.78a2.21,2.21,0,0,0,1.9-2.48l-.32-2.43A2.21,2.21,0,0,0,705,85.63Z"/><path class="cls-5" d="M705.86,92a2.28,2.28,0,0,1,.28.82l.32,2.43a2.21,2.21,0,0,1-1.9,2.48l-20.92,2.78h-.36a2.21,2.21,0,0,0,2.2,1.09l20.93-2.78a2.21,2.21,0,0,0,1.9-2.48L708,93.87A2.23,2.23,0,0,0,705.86,92Z"/><path class="cls-15" d="M681.7,60.15c.14-.47.26-.41.65-.21.79.43.13,0,.46.48.07.08.1.19.18.27a1,1,0,0,0,.86.23c1-.19,1.45-1.75,1.86-2.55a1.94,1.94,0,0,1,.3-.57c.22-.17.14-.15.22,0a2.84,2.84,0,0,1,0,.92,6.54,6.54,0,0,0,.25,2,3.31,3.31,0,0,0,2,2.22,2.26,2.26,0,0,0,2.46-.48,3.9,3.9,0,0,0,.68-2.67,3.51,3.51,0,0,1,.22-1.44c.22-.44.37-.47.49,0s.13.73.24,1.09a1.85,1.85,0,0,0,2.15,1.46,1.51,1.51,0,0,0,.91-.77c.22-.38.24-1,.51-1.3.6-.74,2.44,1.19,2.89-.38a.31.31,0,0,0-.4-.4c-1.06.31-1.88-1.09-3-.33-.53.36-.88,2.24-1.57,1.95-1-.43-.26-2.46-1.54-2.81-.9-.25-1.61.62-1.84,1.37-.29.93,0,1.94-.32,2.86-.51,1.58-2.28.52-2.7-.54a7,7,0,0,1-.36-2.08A2.48,2.48,0,0,0,687,57c-.56-.66-1.32-.16-1.67.44s-.55,1.66-1,2.34L684,60c-.19.38-.36.4-.52.05s-.13-.2-.28-.4a1.29,1.29,0,0,0-.36-.41,1,1,0,0,0-1.47.77c0,.2.29.31.35.1Z"/><path class="cls-21" d="M680.31,41.38s-8.62,4.55-10.54,12.08,4,8.16,5.62,2.08S678.15,43.36,680.31,41.38Z"/><path class="cls-4" d="M715,73A46.15,46.15,0,0,0,720.41,78c1.71,1.34,4.1,3.13,6.34,3.18a1.24,1.24,0,0,0,1.13-2c-1.31-1.73-3.68-2.71-5.5-3.8a54,54,0,0,1-5.84-4c-1-.76-2.42.62-1.54,1.55Z"/><path class="cls-4" d="M717.69,66.55c1.1.74,2.23,1.44,3.38,2.11s2.29,1.58,3.59,1.44a1.15,1.15,0,0,0,.75-1.82c-.73-1-2.16-1.23-3.25-1.7s-2.37-1.08-3.52-1.67c-1-.5-1.85,1-.95,1.64Z"/><path class="cls-4" d="M711.87,41.91c7-3.21,15-6.84,20.78-12.06a.87.87,0,0,0-.87-1.48c-7.33,2.52-14.39,7.84-20.57,12.42a.66.66,0,0,0,.66,1.12Z"/><path class="cls-4" d="M707.14,36.59a28.47,28.47,0,0,1,2.18-2.35,13.76,13.76,0,0,0,2-2.29.84.84,0,0,0-.88-1.15c-2.32.51-3.76,3.05-4.56,5.08a.72.72,0,0,0,1.23.71Z"/><path class="cls-4" d="M687.11,33.28c-.26-1.15-.44-2.31-.7-3.46a13.28,13.28,0,0,0-.33-1.52c-.22-.55-.62-1.07-.87-1.62a.67.67,0,0,0-1.26.16,13.11,13.11,0,0,0-.44,1.8,6.46,6.46,0,0,0,.34,2A12.29,12.29,0,0,0,685.4,34c.49.81,1.91.19,1.71-.71Z"/><path class="cls-4" d="M650.16,37.82c1.33,2.24,4,3.78,6.08,5.24a28.18,28.18,0,0,0,7.11,4,1,1,0,0,0,.94-1.64c-2.08-2-4.85-3.34-7.26-4.87-2-1.27-4.07-3-6.4-3.58-.49-.12-.67.48-.47.81Z"/><path class="cls-4" d="M657.78,49.62c.9.28,1.82.54,2.74.77a6.37,6.37,0,0,0,2.83.34.69.69,0,0,0,.17-1.31,7.38,7.38,0,0,0-2.6-.56c-.94-.14-1.87-.31-2.8-.5-.72-.14-1.06,1-.34,1.26Z"/><path class="cls-4" d="M663.26,39.59c-.21.78.56,1.64,1,2.24s1,1.66,1.78,2a.84.84,0,0,0,1.15-.88,5.21,5.21,0,0,0-1.45-2.28c-.45-.57-1.06-1.53-1.86-1.55a.56.56,0,0,0-.6.46Z"/><path class="cls-4" d="M670.1,78.52c-1.61,2-3.23,4-4.81,6.1-1.4,1.83-3.18,3.65-4.17,5.74A.54.54,0,0,0,662,91c1.79-1.46,3.14-3.61,4.59-5.41,1.62-2,3.2-4.07,4.79-6.11a.78.78,0,0,0-1.23-1Z"/><path class="cls-4" d="M667.61,76.54a3.59,3.59,0,0,0-2.23.75,2.65,2.65,0,0,0-1.24,2,.84.84,0,0,0,.94.72,4.68,4.68,0,0,0,1.62-1c.49-.37,1-.77,1.47-1.12.66-.46.11-1.35-.56-1.33Z"/><path class="cls-9" d="M484.54,132.66s10.36.71,8.38-6.78S485.2,121,485.2,121s1.59-9.7-3.4-11-6.63,3.75-6.63,3.75.13-8.6-5.4-7.5-5.4,7.06-5.4,7.06-7.27-3.75-10.31-.22,1.36,7.5,1.36,7.5a7.49,7.49,0,0,0-6,6.18c-1.1,5.51,4.6,5,4.6,5s-4.94,7.77-2.78,11.19,9.09,1.44,9.09,1.44,1.27,6.39,4,6.39,9.34-5.8,9.34-5.8,1.72,7.13,6.06,4.92-.37-9.2-.37-9.2,7.13,3.82,8.89,0S484.54,132.66,484.54,132.66Z"/><path class="cls-14" d="M489.28,237c-.28,6.94-.54,12.67-.25,15,.4,3.24,1.23,37.08,1.23,37.08l-6.12.82s-6.49-19.16-7.9-25c-1.62-6.7.78-13.87.78-13.87s-2.28-4.29-5-10.42C478,241.52,484.45,241,489.28,237Z"/><path class="cls-9" d="M473.11,244.79c-4-9-10-26.08-10.11-35.23-.09-11.52,10-17.75,22.3-12.81,5.37,2.16,6.75,28.13,6.11,44C486.58,244.71,479.06,245.67,473.11,244.79Z"/><path class="cls-16" d="M476.7,147.62c13.19,2.57,27,21.26,29.58,25.44,3.27,5.24,4.57,12.95,1.08,13.58s-22.88-18.87-24.93-21.89S476.7,147.62,476.7,147.62Z"/><path class="cls-15" d="M477.83,147.51c7.35.16,20.82,13.74,20.92,14.05S493,176.93,493,176.93l-9-5.47Z"/><path class="cls-5" d="M497.28,160c.3-1,5,3.18,4.7,4.4-.23,1-4.46,11.33-5.77,14.51a.81.81,0,0,1-1.21.35l-3.4-2.39a.8.8,0,0,1-.29-.94Z"/><path class="cls-14" d="M513.18,160.27c.16-6.83.52-12.37-.58-13.7s-2.77-1.42-4.09,3.25-5.14,21-5.82,25.53.06,11,3.92,11.73C513.06,188.15,513,167.11,513.18,160.27Z"/><path class="cls-14" d="M513.31,153.3c.37-3.83-.28-5.78,0-8.53.09-.91.49-4.43,0-4.68s-1,3.84-1.18,3.56.56-5.67,0-5.84-1.26,5-1.46,4.79.41-6-.07-6c-.76,0-.81,5.82-1.15,5.76s.16-4.5-.54-4.68-1,6.78-.86,7.54S505,142,504,143c-.49.52,1.78,3.39,3.8,5.14,1.57,1.35.26,3.21-.36,5.68-.37,1.49,5.77.55,5.77.55Z"/><path class="cls-9" d="M463.19,284.35c2.21,6.7,2,10.8-.48,13.41s-7.92-5.09-6.31-8.57a87.06,87.06,0,0,0,3.28-9.08Z"/><path class="cls-9" d="M490.22,287.73c6.56,2.41,11.43,5.51,10.53,7.37s-13.17,1.37-15.16-.3-2.18-7.07-2.18-7.07Z"/><path class="cls-14" d="M457.26,239.69a24.43,24.43,0,0,0,15.53,3.19c-2,5.86-3.62,10.13-4,11-1.4,2.94-5.15,32-5.15,32l-6.06.51S454.27,269,454.28,263c0-6.89,4.35-15.85,4.35-15.85S458,244.2,457.26,239.69Z"/><path class="cls-9" d="M453.92,240.76c-1.49-9.18-.83-25.84,1.54-35.89,2.64-11.21,13.92-14.88,24.7-7.16,4.89,3.51-1.82,31.71-7.05,47.08C467.82,245.62,458.64,243.42,453.92,240.76Z"/><path class="cls-5" d="M455.24,202.3c2.34-10.3,7.28-11.84,6.8-18.09s-1.85-17.43-2.33-21.69-.1-20.28,12.63-17.41,14.27,7.49,15.71,18.95-1.52,11.53-1.73,21.06c-.06,2.65,3.94,17.09,3.94,17.09s-7.57,5.7-15.09,5.79c-4.06.05-10.95-2.23-15.22-3.81-.72-.27,1.79-4.67,1.16-4.92s-3,4.27-3.37,4.1C456.2,202.74,455.24,202.3,455.24,202.3Z"/><path class="cls-16" d="M477.49,150.92c-1,1.38-6.57-1.65-7.45-2.74s-1.56-4-1.2-6.87,3.79-2.64,5.8-1.92S478.93,149,477.49,150.92Z"/><path class="cls-14" d="M472.17,119.8a8.59,8.59,0,0,1,10.93,6.8c1.24,6.75.43,17-4.18,17.85-3.89.7-10-.6-11.68-7.25-.22-.85-5.14-4.13-5.2-6.6-.08-2.76,2.82-1.31,2.87-1.88C465.25,124.27,467.36,121.25,472.17,119.8Z"/><path class="cls-16" d="M479.82,134.59c1.1.48,2.32,5.31,1.47,5.76s-1.87.65-2.21.34S479.56,134.47,479.82,134.59Z"/><path class="cls-14" d="M461.11,151.27c6.42-3,5.15,7,.93,11.89-4.58,5.3-16.46,12.4-21.08,16.35-1.2-3.07-8-.89-10.92.43C437.76,166.45,440.78,160.82,461.11,151.27Z"/><path class="cls-15" d="M466.39,150.46c4.24,4.26-.55,11.65-7.2,16.73s-3.81,2.53-3.81,2.53l-9.06-10.53s-2.93,1.58,4.6-4.21S462.48,146.52,466.39,150.46Z"/><path class="cls-14" d="M443,177.25c-.38,1.18-.63,2-.69,2.26-.29,1.34,13.1,7.26,19.36,12.45,1,.86-1.62,4.11-1.56,4.31.41,1.37-27.66-7.86-30.52-14.8-.27-.65,2.2-5.23,4.55-8.7C436,170.11,440.38,175.27,443,177.25Z"/><path class="cls-16" d="M459.48,200.44c-1.48-.7-1.4-2.51-1.27-3.38s1.93-2.52,1.93-2.52l1.61,2Z"/><path class="cls-14" d="M461,191.39c2.26,1.46,4.13,2.55,4.34,4.85s-3,4-5,4.18-.68-1.61-.75-2.25,1-1.83-1.62-2.53C456.26,195.18,456.21,188.31,461,191.39Z"/><path class="cls-5" d="M446.37,158c-1,1.08-4.91,3.93-4.13,4.46s10.62,9.65,10.62,9.65c.39-.05,4.7-1.77,4.72-2.65S447,157.33,446.37,158Z"/><path class="cls-15" d="M474.07,162.16l1.61-.32,0,2.81a1.08,1.08,0,0,1-.17.71.9.9,0,0,1-.4.26,18.56,18.56,0,0,1-2.72.93,36.55,36.55,0,0,1-5.61.86l0-2.82a1.46,1.46,0,0,1,.09-.63C467.41,162.71,472.88,162.4,474.07,162.16Z"/><path class="cls-9" d="M483.63,126.55c.3,3.25-10.26,3.71-11.94,3.12s.27,5.69.27,5.69-3.32-.12-3.95-.55-2.16-4.29-3-6.1-1.67-6.26-1-7.45,7.37-4.1,7.37-4.1l6.23,1.63S483.12,120.86,483.63,126.55Z"/></g></g></svg>