<?xml version="1.0" encoding="utf-8"?>
<!-- Generator: Adobe Illustrator 24.2.1, SVG Export Plug-In . SVG Version: 6.00 Build 0)  -->
<svg version="1.1" id="Calque_1" xmlns="http://www.w3.org/2000/svg" xmlns:xlink="http://www.w3.org/1999/xlink" x="0px" y="0px"
	 viewBox="0 0 1642.5 846.5" style="enable-background:new 0 0 1642.5 846.5;" xml:space="preserve">
<style type="text/css">
	.st0{fill:none;stroke:#2E186A;stroke-width:6;stroke-linecap:round;stroke-linejoin:round;}
	.st1{fill:#FE7624;}
	.st2{fill:none;stroke:#2E186A;stroke-width:8;stroke-linecap:round;stroke-linejoin:round;}
	.st3{fill:#2E186A;}
	.st4{fill:url(#SVGID_1_);}
	.st5{fill:#FFFFFF;}
</style>
<g id="Layer_2">
	<g id="outline">
		<g id="developer">
			<path id="chair" class="st0" d="M317.7,731.7l-24.4-194.6c-9.6-76.6,45-138.7,122.1-138.7h128.8"/>
			<g id="body">
				<path id="hoodie" class="st0" d="M625,394.9l16-22.5l-4.2-30.3c-1.1-2.1-2.3-4.4-3.5-6.7c-87.4,13-98,49.6-78.4,88.8
					C410,452.6,346.9,675,384.6,780.6c10.7,30,19.4,60,51.3,60.3"/>
				<g id="tshirt">
					<path class="st1" d="M670.6,475.8c0-0.2,0-0.4,0-0.6c4.7,0.5,9.3,0.5,13.8-3.4c11-9.5,14.9-12.4,14.9-12.4s1,1.2,2.8,3.2
						c2.2-4,4.4-8.1,6.7-12.4c-47.5-36.8-83.8-55.4-83.8-55.4l-2.7-1.9l-17.4,21.3C604.9,414.3,633.3,433.8,670.6,475.8z"/>
					<path class="st1" d="M900.1,821.1c0,0-76-204.4-66.3-267.7c5.3-34.5-3-73.7-14.4-104l-21.8,1.4l-26.1,61.6
						c1.7,0.4,3.4,0.8,5.1,1c0,0-1,6.5-3.5,21.3c-1.7,9.9,1.2,11,3.4,17.9c2.9,4.6,5.1,9.8,2.7,17.9c-0.8,2.6-2.7,27.4-7,61
						c8,17,15.6,34.9,22.8,54c46.1,122.9,41.3,136.3,41.3,136.3L900.1,821.1z"/>
				</g>
				<path id="hoodie-2" class="st0" d="M1157.5,839.3c-5.5-36-44.5-229.2-267.7-398.7c-5-30.3-17.7-77.9-82.7-100.2"/>
				<path id="string" class="st2" d="M851.9,542.6c0,0-2.4,65.3,11.9,112.2"/>
				<path id="stripe" class="st3" d="M886.9,439.9c0.7,4.3,1.3,8.2,1.8,11.6c6.1,39.8-7,66.3-15.7,84.6c23.3-16.5,39.1-47.9,47-71.8
					C910.4,456.6,897.3,447.6,886.9,439.9z"/>
				<path id="stripe_II" class="st3" d="M557.2,422.5c-16.3,3.3-43.1,11.5-62.5,24.8c13.5,7.4,80.4,47.4,135,71.4
					c0.4-0.3,3.4-5.3,4.9-7.2C604.5,487.6,572.7,453.4,557.2,422.5z"/>
			</g>
			<g id="head">
				<path id="ear" class="st0" d="M601.3,263.3c0,0-37.1,10.1-22.1,41.8c10.4,22,30.3,14.2,42.1,7.5"/>
				<path id="face" class="st0" d="M611.2,269.3l11.7-3.9c7.7,4.6,33.1,36.2,41.3,51.9c0,0,37.3-24.2,95.5-39.7
					c0,0,31.7-7.2,45.5-6.7c-4-32-12.2-72.9-26.6-109.4c-21.4-54.3-87.7-33.3-97.3-30C577.8,166.6,611,269,611,269L611.2,269.3z"/>
				<path id="beard" class="st0" d="M727.5,403.4c-12.4,0-24.3-2.1-33.6-5.8c-30.2-11.9-36.6-19.6-47.5-37.8s-44.8-87.4-44.8-87.4
					l21.2-7.1c7.7,4.6,33.1,36.2,41.3,51.9c0,0,37.3-24.2,95.5-39.7c0,0,32-7.3,45.7-6.7c0,0,6.5,32.5,2.6,64.4"/>
				<path id="hair" class="st3" d="M604.2,281.5c0,0-19.1-22.2-32.9-48.7c-13-24.9-7.6-55.8,13.9-73.8c18-15.1,35.2-11.1,35.2-11.1
					s-31.1-31.6-6.6-72.6c8.7-14.5,22.9-24.7,39.4-28.4c40.2-8.8,61,21.8,61,21.8s23.1-89.2,122.3-64.7c10,2.5,23.2,13.1,30.2,20.7
					C909,71,829.5,158,781.1,175.4c-53.1,19.1-87.3,18.1-108.2,9.1C687.9,189.1,688.5,273.8,604.2,281.5z"/>
				<polyline id="nose" class="st2" points="757.6,253.9 776.3,303.8 757,303.7 				"/>
				<circle id="mouth" class="st3" cx="747.3" cy="337.5" r="9.5"/>
				
					<ellipse id="eye_II" transform="matrix(0.9701 -0.2426 0.2426 0.9701 -37.4012 196.1365)" class="st3" cx="777.7" cy="249.9" rx="5.4" ry="8.4"/>
				
					<ellipse id="eye" transform="matrix(0.9701 -0.2426 0.2426 0.9701 -41.7767 184.1513)" class="st3" cx="726.8" cy="261.7" rx="5.4" ry="8.4"/>
				<path id="brow_II" class="st2" d="M693.7,229.9c3.7-8.3,11.6-13.9,20.6-14.7"/>
				<path id="brow" class="st2" d="M762.3,202.3c0,0,13.6-7.4,20.3,3.6"/>
			</g>
			<path id="laptop" class="st3" d="M1354,562.9H965.2c-5.1,0-9.5,3.5-10.7,8.5l-54.1,228.8H759.5c0,0-7.8,40.3,37.7,40.3h496.4
				c5.1,0,9.5-3.5,10.7-8.5l60.4-255.6c1.4-5.9-2.3-11.8-8.2-13.2C1355.7,563,1354.9,562.9,1354,562.9z"/>
			<g id="code_lines">
				<path class="st1" d="M1196.7,206.2h3.1c2.8,0,5,2.2,5,5v7.9c0,2.8-2.2,5-5,5h-3.1c-2.8,0-5-2.2-5-5v-7.9
					C1191.7,208.5,1193.9,206.2,1196.7,206.2z"/>
				<path class="st3" d="M1101.9,206.2h79.8c2.8,0,5,2.2,5,5v7.9c0,2.8-2.2,5-5,5h-79.8c-2.8,0-5-2.2-5-5v-7.9
					C1096.9,208.5,1099.1,206.2,1101.9,206.2z"/>
				<path class="st3" d="M1101.9,289.3h87.9c2.8,0,5,2.2,5,5v7.9c0,2.8-2.2,5-5,5h-87.9c-2.8,0-5-2.2-5-5v-7.9
					C1096.9,291.6,1099.1,289.3,1101.9,289.3z"/>
				<path class="st1" d="M1126.6,261.7h141.9c2.8,0,5,2.2,5,5v7.9c0,2.8-2.2,5-5,5h-141.9c-2.8,0-5-2.2-5-5v-7.9
					C1121.6,263.9,1123.9,261.7,1126.6,261.7z"/>
				<path class="st1" d="M1287,261.7h72c2.8,0,5,2.2,5,5v7.9c0,2.8-2.2,5-5,5h-72c-2.8,0-5-2.2-5-5v-7.9
					C1282,263.9,1284.3,261.7,1287,261.7z"/>
				<path class="st3" d="M1383.8,234h3.1c2.8,0,5,2.2,5,5v7.9c0,2.8-2.2,5-5,5h-3.1c-2.8,0-5-2.2-5-5V239
					C1378.8,236.2,1381,234,1383.8,234z"/>
				<path class="st3" d="M1101.9,234h147.1c2.8,0,5,2.2,5,5v7.9c0,2.8-2.2,5-5,5h-147.1c-2.8,0-5-2.2-5-5V239
					C1096.9,236.2,1099.1,234,1101.9,234z"/>
				<path class="st3" d="M1215.5,206.2h79.8c2.8,0,5,2.2,5,5v7.9c0,2.8-2.2,5-5,5h-79.8c-2.8,0-5-2.2-5-5v-7.9
					C1210.5,208.5,1212.8,206.2,1215.5,206.2z"/>
				<path class="st1" d="M1266,233.9h100.8c2.8,0,5,2.2,5,5v8c0,2.8-2.2,5-5,5H1266c-2.8,0-5-2.2-5-5v-8
					C1261,236.1,1263.2,233.9,1266,233.9z"/>
			</g>
			<g id="code_lines-2">
				<path class="st3" d="M1101.9,385.6h79.8c2.8,0,5,2.2,5,5v7.9c0,2.8-2.2,5-5,5h-79.8c-2.8,0-5-2.2-5-5v-7.9
					C1096.9,387.8,1099.1,385.6,1101.9,385.6z"/>
				<path class="st3" d="M1101.9,468.7h87.9c2.8,0,5,2.2,5,5v7.9c0,2.8-2.2,5-5,5h-87.9c-2.8,0-5-2.2-5-5v-7.9
					C1096.9,470.9,1099.1,468.7,1101.9,468.7z"/>
				<path class="st1" d="M1126.6,441h141.9c2.8,0,5,2.2,5,5v7.9c0,2.8-2.2,5-5,5h-141.9c-2.8,0-5-2.2-5-5V446
					C1121.6,443.3,1123.9,441,1126.6,441z"/>
				<path class="st1" d="M1287,441h72c2.8,0,5,2.2,5,5v7.9c0,2.8-2.2,5-5,5h-72c-2.8,0-5-2.2-5-5V446
					C1282,443.3,1284.3,441,1287,441z"/>
				<path class="st3" d="M1383.8,413.4h3.1c2.8,0,5,2.2,5,5v7.9c0,2.8-2.2,5-5,5h-3.1c-2.8,0-5-2.2-5-5v-7.9
					C1378.8,415.6,1381,413.4,1383.8,413.4z"/>
				<path class="st3" d="M1406.6,385.6h3.1c2.8,0,5,2.2,5,5v7.9c0,2.8-2.2,5-5,5h-3.1c-2.8,0-5-2.2-5-5v-7.9
					C1401.6,387.8,1403.9,385.6,1406.6,385.6z"/>
				<path class="st3" d="M1101.9,413.3h147.1c2.8,0,5,2.2,5,5v7.9c0,2.8-2.2,5-5,5h-147.1c-2.8,0-5-2.2-5-5v-7.9
					C1096.9,415.6,1099.1,413.3,1101.9,413.3z"/>
				<path class="st1" d="M1196.7,385.6h98.6c2.8,0,5,2.2,5,5v7.9c0,2.8-2.2,5-5,5h-98.6c-2.8,0-5-2.2-5-5v-7.9
					C1191.7,387.8,1193.9,385.6,1196.7,385.6z"/>
				<path class="st1" d="M1312.2,385.6h79.8c2.8,0,5,2.2,5,5v7.9c0,2.8-2.2,5-5,5h-79.8c-2.8,0-5-2.2-5-5v-7.9
					C1307.2,387.8,1309.5,385.6,1312.2,385.6z"/>
				<path class="st1" d="M1196.7,358.8h3.1c2.8,0,5,2.2,5,5v7.9c0,2.8-2.2,5-5,5h-3.1c-2.8,0-5-2.2-5-5v-7.9
					C1191.7,361,1193.9,358.8,1196.7,358.8z"/>
				<path class="st3" d="M1101.9,358.8h79.8c2.8,0,5,2.2,5,5v7.9c0,2.8-2.2,5-5,5h-79.8c-2.8,0-5-2.2-5-5v-7.9
					C1096.9,361,1099.1,358.8,1101.9,358.8z"/>
				<path class="st3" d="M1215.5,358.8h79.8c2.8,0,5,2.2,5,5v7.9c0,2.8-2.2,5-5,5h-79.8c-2.8,0-5-2.2-5-5v-7.9
					C1210.5,361,1212.8,358.8,1215.5,358.8z"/>
				<path class="st1" d="M1266,413.3h100.8c2.8,0,5,2.2,5,5v8c0,2.8-2.2,5-5,5H1266c-2.8,0-5-2.2-5-5v-8
					C1261,415.5,1263.2,413.3,1266,413.3z"/>
			</g>
			<g id="mug">
				<path id="handle" class="st0" d="M1484.3,735.4c2.2-0.8,4.5-1.2,6.8-1.4c14.4-1,26.8,9.8,27.9,24.1c1,14.4-9.8,26.8-24.1,27.9
					c-2,0.1-3.9,0.1-5.9-0.2"/>
				<line id="spoon" class="st0" x1="1421.5" y1="738.8" x2="1384.3" y2="693.3"/>
				<path id="mug-2" class="st3" d="M1378.8,724.7v85.8c0,16.6,13.4,30,30,30h50.6c16.6,0,30-13.4,30-30v-85.8H1378.8z
					 M1423.5,787.5c0.6,0.4,1,1,1,1.8c0,1.1-0.9,2-2,2c-0.3,0-0.7-0.1-1-0.3l-20-12c-1-0.5-1.4-1.7-1-2.7c0.2-0.4,0.5-0.8,1-1l20-12
					c0.3-0.2,0.7-0.3,1-0.3c1.1,0,2,0.9,2,2c0,0.7-0.4,1.4-1,1.8l-17.2,10.3L1423.5,787.5z M1448.5,758l-16.1,40.3
					c-0.1,0.2-0.2,0.4-0.4,0.5c-0.4,0.4-0.9,0.6-1.4,0.6c-1.1,0-2-0.9-2-2c0-0.3,0.1-0.6,0.2-0.8l16.1-40.3c0.1-0.2,0.3-0.4,0.4-0.6
					c0.4-0.4,0.9-0.6,1.4-0.6c1.1,0,2,0.9,2,2C1448.7,757.4,1448.6,757.7,1448.5,758L1448.5,758z M1475.8,779l-20,12
					c-0.3,0.2-0.7,0.3-1,0.3c-1.1,0-2-0.9-2-2c0-0.7,0.4-1.4,1-1.8l17.2-10.3l-17.2-10.3c-0.6-0.4-1-1-1-1.8c0-0.5,0.2-1,0.6-1.4
					c0.4-0.4,0.9-0.6,1.4-0.6c0.3,0,0.7,0.1,1,0.3l20,12c1,0.5,1.4,1.7,1,2.7C1476.6,778.5,1476.2,778.8,1475.8,779L1475.8,779z"/>
			</g>
			<g id="tea">
				<path id="handle-2" class="st0" d="M245.2,786c-14.4,1.1-26.9-9.7-27.9-24.1c-1.1-14.4,9.7-26.9,24.1-27.9
					c1.6-0.1,3.2-0.1,4.7,0.1"/>
				<path id="ug" class="st3" d="M241.8,724.7v85.8c0,16.6,13.4,30,30,30h50.6c16.6,0,30-13.4,30-30v-85.8H241.8z M286.6,787.5
					c0.6,0.4,1,1,1,1.8c0,1.1-0.9,2-2,2c-0.3,0-0.7-0.1-1-0.3l-20-12c-1-0.5-1.4-1.7-1-2.7c0.2-0.4,0.5-0.8,1-1l20-12
					c0.3-0.2,0.7-0.3,1-0.3c1.1,0,2,0.9,2,2c0,0.7-0.4,1.4-1,1.8l-17.2,10.3L286.6,787.5z M328.7,779l-20,12c-0.3,0.2-0.7,0.3-1,0.3
					c-0.5,0-1.1-0.2-1.4-0.6c-0.4-0.4-0.6-0.9-0.6-1.4c0-0.7,0.4-1.4,1-1.8l17.2-10.3l-17.2-10.3c-0.6-0.4-1-1-1-1.8
					c0-1.1,0.9-2,2-2c0.3,0,0.7,0.1,1,0.3l20,12c1,0.5,1.4,1.7,1,2.7C329.5,778.5,329.2,778.8,328.7,779L328.7,779z"/>
			</g>
			<g id="soda">
				<line id="line" class="st0" x1="427.3" y1="690.1" x2="413.7" y2="665.3"/>
				<line id="line-2" class="st0" x1="397" y1="692.8" x2="472.8" y2="692.8"/>
				<g id="can">
					<path class="st3" d="M462.3,773.6c-2.3-2.3-6-2.3-8.3,0s-2.3,6,0,8.3s6,2.3,8.3,0c1.1-1.1,1.7-2.6,1.7-4.2
						C464,776.2,463.4,774.7,462.3,773.6z"/>
					<path class="st3" d="M458.1,764.8c3.2,0,5.9-2.6,5.9-5.8c0-3.2-2.6-5.9-5.8-5.9c-3.2,0-5.9,2.6-5.9,5.8c0,1.6,0.6,3.1,1.7,4.2
						C455.1,764.2,456.6,764.8,458.1,764.8z"/>
					<path class="st3" d="M462.3,800.7c2.3-2.3,2.3-6,0-8.3c-2.3-2.3-6-2.3-8.3,0s-2.3,6,0,8.3c1.1,1.1,2.6,1.7,4.2,1.7
						C459.7,802.4,461.2,801.8,462.3,800.7z"/>
					<path class="st3" d="M480.2,710.9l-13.3-17.3h-64.1l-13.3,17.3c-1.3,1.6-2,3.6-2,5.6v105.3c0.1,3.4,2,6.6,5,8.3
						c4.1,2.6,9.4,6.5,9.7,10.3h65.3c0.4-3.8,5.6-7.8,9.7-10.3c3-1.7,4.8-4.8,4.9-8.3V716.5C482.2,714.5,481.5,712.5,480.2,710.9z
						 M452.4,731.1l7-11.7c0.2-0.4,0.6-0.6,1-0.7c0.4,0,0.9,0.3,1.1,0.7l7,11.7c0.1,0.2,0.2,0.4,0.1,0.6c0,0.3-0.1,0.6-0.3,0.8
						c-0.2,0.2-0.5,0.4-0.8,0.3c-0.4,0-0.8-0.2-1-0.6l-6-10l-6,10c-0.2,0.4-0.6,0.6-1,0.6c-0.3,0-0.6-0.1-0.8-0.3
						c-0.2-0.2-0.4-0.5-0.4-0.8C452.2,731.5,452.3,731.3,452.4,731.1L452.4,731.1z M452.8,735.5c0.2-0.1,0.4-0.2,0.7-0.2
						c0.3,0,0.6,0.1,0.8,0.3c0.2,0.2,0.3,0.5,0.3,0.8c0,0.3-0.1,0.6-0.3,0.8l-0.4,0.4c-1.1,1.1-1.7,2.6-1.7,4.2
						c-0.1,1.5,0.5,2.9,1.5,3.9c0.3,0.2,0.6,0.4,1,0.3c0.4,0,0.8-0.3,0.9-0.7l2.4-7.2c0.2-0.7,0.6-1.3,1-1.9c0.6-0.7,1.5-1,2.5-1
						c1,0,1.9,0.4,2.5,1.1c1.5,1.5,2.2,3.5,2.1,5.5c0,2.4-1.1,4.8-3,6.3c-0.2,0.2-0.4,0.2-0.7,0.2c-0.6,0-1.2-0.5-1.2-1.1
						c0,0,0,0,0,0c0-0.3,0.1-0.6,0.3-0.8l0.4-0.4c1.1-1.1,1.7-2.6,1.7-4.2c0.1-1.5-0.5-2.9-1.5-3.9c-0.3-0.2-0.6-0.4-1-0.3
						c-0.4,0-0.8,0.3-0.9,0.7l-2.4,7.2c-0.2,0.7-0.5,1.3-1,1.9c-0.6,0.7-1.5,1-2.5,1c-1,0-1.9-0.4-2.5-1.1c-1.5-1.5-2.2-3.5-2.1-5.5
						C449.9,739.3,451,737,452.8,735.5L452.8,735.5z M452.3,753.1c3.2-3.2,8.4-3.2,11.6,0c3.2,3.2,3.2,8.4,0,11.6
						c-3.2,3.2-8.4,3.2-11.6,0c-1.5-1.5-2.4-3.6-2.4-5.8C449.9,756.8,450.7,754.7,452.3,753.1z M450.2,804.4c-0.5-0.5-0.4-1.2,0-1.7
						c0.2-0.2,0.5-0.3,0.8-0.3h1.3c-3.2-3.2-3.3-8.4-0.1-11.6c3.2-3.2,8.4-3.3,11.6-0.1c3.2,3.2,3.3,8.4,0.1,11.6
						c-1.6,1.6-3.7,2.5-5.9,2.5h-7C450.8,804.8,450.5,804.6,450.2,804.4z M468.5,808.8l-7,11.7c-0.2,0.4-0.6,0.6-1.1,0.7
						c-0.4,0-0.8-0.3-1-0.7l-7-11.7c-0.1-0.2-0.2-0.4-0.1-0.6c0-0.3,0.1-0.6,0.4-0.8c0.2-0.2,0.5-0.4,0.8-0.3c0.4,0,0.8,0.2,1,0.6
						l6,10l6-10c0.2-0.4,0.6-0.6,1-0.6c0.6,0,1.2,0.5,1.2,1.2C468.7,808.5,468.6,808.7,468.5,808.8z M473.1,785.6
						c-0.2,0.2-0.5,0.3-0.8,0.3h-14.1c-4.5,0-8.2-3.7-8.2-8.2c0-4.5,3.7-8.2,8.2-8.2c4.5,0,8.2,3.7,8.2,8.2c0,2.2-0.9,4.3-2.4,5.8
						l-0.1,0.1h8.4c0.3,0,0.6,0.1,0.8,0.3c0.2,0.2,0.4,0.5,0.4,0.8C473.4,785.1,473.3,785.4,473.1,785.6L473.1,785.6z"/>
				</g>
			</g>
			<g id="hand">
				<path id="thumb" class="st0" d="M728.2,413.2c0.4-12.9,0.2-33.3-4.4-42.2c-7.3-14.1-0.5-29.2,14.4-13.8
					c8.5,8.8,12.7,20.4,14.7,28.8"/>
				<circle class="st0" cx="854.1" cy="366.4" r="26.1"/>
				<path id="sleeve" class="st0" d="M685.2,843.5c76.2-5.7,91.4-264.2,94-273.1c5.3-17.4-11.3-21.5-9.1-35.3s0.5-20,0.5-20
					c-35.8-5.8-70.5-50.8-70.5-50.8s-3.6,2.6-13.8,11.4s-21.7-4.7-33.4,8.7c-7.7,8.9-91.8,150.2-91.8,150.2"/>
				<path id="welt" class="st3" d="M773.2,534.7c2.5-14.9,3.5-21.3,3.5-21.3c-38.1-5.9-77.4-53.9-77.4-53.9s-3.9,2.9-14.9,12.4
					c-4.4,3.8-9,3.8-13.8,3.4c-3.4,41.7,71.5,78.8,106.9,80.6C775.2,545.8,771.3,546,773.2,534.7z"/>
				<path id="line-3" class="st0" d="M511.5,610.9c0,0,45.1-38.9,71.3-14.4"/>
				<path id="hand-2" class="st0" d="M684.4,495.7l75.6,43.9l37.8-89.4c36.5,0.1,36.3-19.8,28.7-20.4s-44.3,4.5-44.3,4.5
					s1.2-2.7,31-8.3s24.2-22.3,17.8-22.7s-53.8,11.4-53.8,11.4l40.7-14.5c14.5-4.6,15-18.6,7.4-20.6c-5-1.3-31.7,6.8-52.8,14.1
					c0,0,25.4-13,37.4-20.9s3.6-18.1-3.4-17.5s-55.9,33.3-65.2,41.4S684.4,495.7,684.4,495.7z"/>
			</g>
			<g id="coffe">
				<path id="handle-3" class="st0" d="M635.2,734.7c1.4-0.3,2.8-0.5,4.2-0.7c14.4-1,26.8,9.7,27.9,24.1c1,14.4-9.7,26.8-24.1,27.9
					c-3.2,0.2-6.5-0.1-9.6-1.1"/>
				<path id="mug-3" class="st3" d="M527.1,724.7v85.8c0,16.6,13.4,30,30,30h50.6c16.6,0,30-13.4,30-30v-85.8H527.1z M571.8,787.5
					c0.6,0.4,1,1,1,1.8c0,1.1-0.9,2-2,2c-0.3,0-0.7-0.1-1-0.3l-20-12c-1-0.5-1.4-1.7-1-2.7c0.2-0.4,0.5-0.8,1-1l20-12
					c0.3-0.2,0.7-0.3,1-0.3c0.5,0,1,0.2,1.4,0.6c0.4,0.4,0.6,0.9,0.6,1.4c0,0.7-0.4,1.4-1,1.8l-17.2,10.3L571.8,787.5z M596.8,758
					l-16.1,40.3c-0.1,0.2-0.2,0.4-0.4,0.5c-0.4,0.4-0.9,0.6-1.4,0.6c-1.1,0-2-0.9-2-2c0-0.3,0.1-0.6,0.2-0.8l16.1-40.3
					c0.1-0.2,0.3-0.4,0.4-0.6c0.4-0.4,0.9-0.6,1.4-0.6c1.1,0,2,0.9,2,2C597,757.4,597,757.7,596.8,758L596.8,758z M624.1,779l-20,12
					c-0.3,0.2-0.7,0.3-1,0.3c-1.1,0-2-0.9-2-2c0-0.7,0.4-1.4,1-1.8l17.2-10.3l-17.2-10.3c-0.6-0.4-1-1-1-1.8c0-0.5,0.2-1.1,0.6-1.4
					c0.4-0.4,0.9-0.6,1.4-0.6c0.3,0,0.7,0.1,1,0.3l20,12c1,0.5,1.4,1.7,1,2.7C624.9,778.4,624.5,778.8,624.1,779L624.1,779z"/>
			</g>
			<line id="line-4" class="st0" x1="3" y1="843" x2="1639.5" y2="843"/>
			<path class="st3" d="M853.7,417l-5.5-85.6l-110.4,7.1l3.8,57.9c9.8-8.4,58-40.6,65-41.2s15.4,9.6,3.4,17.5s-37.4,20.9-37.4,20.9
				c21.1-7.4,47.8-15.4,52.8-14.1c7.6,2,7.1,16-7.4,20.6l-40.7,14.5c0,0,47.4-11.9,53.8-11.4s12,17.1-17.8,22.7s-31,8.3-31,8.3
				s36.7-5.2,44.3-4.5s7.8,20.5-28.7,20.4l-0.2,0.5l28.1-1.8C842.2,447.8,854.8,433.6,853.7,417C853.7,417,853.7,417,853.7,417z"/>
		</g>
	</g>
</g>
<g>
	
		<linearGradient id="SVGID_1_" gradientUnits="userSpaceOnUse" x1="1145.9526" y1="169.9285" x2="1213.9767" y2="169.9285" gradientTransform="matrix(1 0 0 -1 0 846)">
		<stop  offset="0" style="stop-color:#EB712A"/>
		<stop  offset="0.2311" style="stop-color:#EF8528"/>
		<stop  offset="0.4715" style="stop-color:#F29426"/>
		<stop  offset="0.6242" style="stop-color:#F39A24"/>
	</linearGradient>
	<path class="st4" d="M1179.8,641.9c-18.9,0-34.1,15.2-34.1,34.1s15.2,34.1,34.1,34.1s34.1-15.2,34.1-34.1
		C1214,656.6,1198.7,641.9,1179.8,641.9z"/>
	<path class="st5" d="M1181.7,720c-1.2,4.3-1.8,7.9-3,10.4l-0.6,1.2c-0.6,3-3,4.9-6.1,4.9h-1.8c-1.2,0-2.4-0.6-3.7-1.8
		c-0.6-1.2-1.2-2.4-1.2-3.7l1.8-12.2c0-0.6,0.6-1.8,1.2-2.4c-17.7-4.3-30.5-20.1-30.5-39c0-3,0.6-5.5,0.6-8.5h-50
		c-3,0-5.5-1.8-6.1-4.9l-2.4-10.4c-1.2-3.7-4.3-6.7-8.5-6.7h-14.6c-3,0-4.9,2.4-4.9,4.9c0,3,2.4,4.9,4.9,4.9h7.9
		c3,0,5.5,1.8,6.1,4.9l19.5,79.3c1.2,3.7,4.3,6.7,8.5,6.7h79.9c4.3,0,7.3-2.4,8.5-6.7l6.7-26.8c-4.3,1.8-8.5,2.4-12.8,3
		C1182.3,718.8,1182.3,719.4,1181.7,720z M1092,698c-0.6-3-1.8-6.1-2.4-8.5l-0.6-2.4c-0.6-1.2,0-2.4,0.6-3.7
		c0.6-1.2,2.4-1.8,3.7-1.8h5.5c3,0,5.5,1.8,5.5,4.9l1.8,11c0,1.2,0,2.4-1.2,3.7c-0.6,1.2-2.4,1.8-3.7,1.8h-3
		C1095.1,702.3,1092.6,700.5,1092,698z M1110.9,734.6c-0.6,1.2-2.4,1.8-3.7,1.8h-0.6c-3,0-5.5-1.8-6.1-4.9l-0.6-1.2
		c-0.6-3-1.8-6.7-3-11c-0.6-1.2,0-2.4,0.6-3.7c0.6-1.2,2.4-1.8,3.7-1.8h3c3,0,5.5,1.8,6.1,4.9l1.8,12.2
		C1112.1,732.2,1112.1,734,1110.9,734.6z M1133.5,732.2c0,2.4-1.8,4.3-4.3,4.3s-4.9-1.8-4.9-4.3l-1.8-12.8c0-1.2,0-2.4,1.2-3.7
		c0.6-1.2,2.4-1.8,3.7-1.8h1.8c3,0,5.5,2.4,5.5,5.5v12.8H1133.5z M1133.5,697.4c0,3-2.4,5.5-5.5,5.5h-4.3c-3,0-5.5-1.8-6.1-4.9
		l-1.2-11.6c0-1.2,0-2.4,1.2-3.7c1.2-1.2,2.4-1.8,3.7-1.8h7.3c3,0,4.9,2.4,4.9,5.5V697.4z M1156.7,719.4l-1.8,12.8
		c-0.6,2.4-2.4,4.3-4.9,4.3s-4.3-1.8-4.3-4.3v-12.8c0-3,2.4-5.5,5.5-5.5h1.8c1.2,0,2.4,0.6,3.7,1.8
		C1156.7,716.9,1156.7,718.1,1156.7,719.4z"/>
	<polygon class="st5" points="1179.8,646.8 1188.4,663.9 1207.9,666.9 1193.9,680.3 1196.9,699.2 1179.8,690.7 1162.8,699.2 
		1165.8,680.3 1152.4,666.9 1171.3,663.9 	"/>
	<ellipse class="st5" cx="1104.2" cy="771.2" rx="14.6" ry="15.2"/>
	<ellipse class="st5" cx="1175" cy="771.2" rx="14.6" ry="15.2"/>
</g>
</svg>
